/* XPM */
static char *aW1hZ2UyJTI4MSUyOS4_[] = {
/* columns rows colors chars-per-pixel */
"64 64 237 2 ",
"   c #5C3E22",
".  c #4F3715",
"X  c #564230",
"o  c #644C39",
"O  c #6C5439",
"+  c #6B5337",
"@  c #7C5C35",
"#  c #72563A",
"$  c #7C5D3A",
"%  c #745738",
"&  c #67492F",
"*  c #7A613F",
"=  c #555B56",
"-  c #5D4B47",
";  c #645345",
":  c #795C42",
">  c #675852",
",  c #634F44",
"<  c #786549",
"1  c #696255",
"2  c #796756",
"3  c #7D765C",
"4  c #7A6D65",
"5  c #797769",
"6  c #7A6F73",
"7  c #7B7673",
"8  c #68716F",
"9  c #946C2F",
"0  c #9D752F",
"q  c #876639",
"w  c #9C7433",
"e  c #9C763C",
"r  c #A07837",
"t  c #896D4A",
"y  c #8A724A",
"u  c #93754D",
"i  c #98784B",
"p  c #866C56",
"a  c #8B7453",
"s  c #85755B",
"d  c #85795D",
"f  c #897759",
"g  c #917553",
"h  c #937B54",
"j  c #9C7B52",
"k  c #937C5B",
"l  c #9C7D5A",
"z  c #977756",
"x  c #A27D55",
"c  c #A37F5A",
"v  c #A97E58",
"b  c #A0794E",
"n  c #8B7D65",
"m  c #8B7E6A",
"M  c #83786A",
"N  c #947C63",
"B  c #877B78",
"V  c #A67F60",
"C  c #7B8179",
"Z  c #9E8254",
"A  c #9C835C",
"S  c #978152",
"D  c #9D8048",
"F  c #A9834D",
"G  c #A48256",
"H  c #A98355",
"J  c #A6835B",
"K  c #AA855C",
"L  c #AD895E",
"P  c #A6895E",
"I  c #B18B5E",
"U  c #B38A5C",
"Y  c #B59157",
"T  c #8D826B",
"R  c #8C8167",
"E  c #9E8564",
"W  c #93846B",
"Q  c #9C8668",
"!  c #9D896B",
"~  c #968568",
"^  c #878377",
"/  c #9E8E74",
"(  c #968777",
")  c #9C9075",
"_  c #9C957D",
"`  c #A48462",
"'  c #AB8662",
"]  c #A48A64",
"[  c #AE8B62",
"{  c #A48C6B",
"}  c #AC8E6A",
"|  c #B38D63",
" . c #BA8F64",
".. c #B48E69",
"X. c #B98E6C",
"o. c #AD9064",
"O. c #AC926C",
"+. c #A6926F",
"@. c #B59165",
"#. c #B99366",
"$. c #B5936A",
"%. c #BB956A",
"&. c #BE996E",
"*. c #BD996D",
"=. c #BB9A61",
"-. c #A28D72",
";. c #A88E73",
":. c #AC9372",
">. c #A5947C",
",. c #AC997B",
"<. c #A79477",
"1. c #B49773",
"2. c #BB9671",
"3. c #B59A74",
"4. c #BB9870",
"5. c #BD9A71",
"6. c #BD9C72",
"7. c #BC9E7A",
"8. c #B49C7D",
"9. c #BCA27B",
"0. c #B9A179",
"q. c #C1976C",
"w. c #C09B6E",
"e. c #C19B6E",
"r. c #C49964",
"t. c #C19D72",
"y. c #C19E75",
"u. c #C59E75",
"i. c #C39D72",
"p. c #C49F78",
"a. c #C69C74",
"s. c #CAA66A",
"d. c #D1AA6B",
"f. c #D9B46E",
"g. c #C6A176",
"h. c #C4A275",
"j. c #C8A377",
"k. c #C9A376",
"l. c #C5A479",
"z. c #CAA579",
"x. c #C9A57A",
"c. c #CBA97C",
"v. c #C2AB79",
"b. c #D4AE72",
"n. c #D3B172",
"m. c #DAB474",
"M. c #DDB973",
"N. c #DEBC7C",
"B. c #DAB47B",
"V. c #E2BA73",
"C. c #E6BD76",
"Z. c #EDC67B",
"A. c #E7C379",
"S. c #F0C67A",
"D. c #898984",
"F. c #9B8B84",
"G. c #968C89",
"H. c #979289",
"J. c #9F9598",
"K. c #958C91",
"L. c #A39680",
"P. c #AB9A81",
"I. c #A49B88",
"U. c #AA9C94",
"Y. c #B09D9F",
"T. c #AEA288",
"R. c #B3A384",
"E. c #BBA482",
"W. c #B2A28B",
"Q. c #BBA988",
"!. c #ACA198",
"~. c #B5A791",
"^. c #B8A999",
"/. c #B39FA8",
"(. c #ADA8A3",
"). c #B3A5A3",
"_. c #B4ABA5",
"`. c #B6AAAA",
"'. c #B2B1A5",
"]. c #B8B3AA",
"[. c #B7AEB2",
"{. c #BAB4B4",
"}. c #C4AA86",
"|. c #CFBA9C",
" X c #D9B587",
".X c #E5BD80",
"XX c #C3B9AB",
"oX c #C6BAB5",
"OX c #CAB7A5",
"+X c #BFC1B3",
"@X c #E7C585",
"#X c #F4CE8A",
"$X c #F1CB84",
"%X c #F4D285",
"&X c #F5D28C",
"*X c #F9D38C",
"=X c #FDD98F",
"-X c #E8C797",
";X c #F4D293",
":X c #FBD593",
">X c #FEDA95",
",X c #F3D49A",
"<X c #FCD99B",
"1X c #FCD599",
"2X c #ECD29F",
"3X c #C9C4BC",
"4X c #D9CAB6",
"5X c #DDD2B8",
"6X c #D4C3A8",
"7X c #EDD7AA",
"8X c #F3D6A3",
"9X c #FDDDA3",
"0X c #FBDEAB",
"qX c #F3DCA8",
"wX c #FBDCB0",
"eX c #FEE1A3",
"rX c #FDE3AC",
"tX c #F5E1AE",
"yX c #FDE4B3",
"uX c #FFE9B3",
"iX c #FFE9BC",
"pX c #F9E4B9",
"aX c #C4BDC2",
"sX c #CCC4CC",
"dX c #C9C3C9",
"fX c #D3C9CA",
"gX c #D5D0CD",
"hX c #CCC8D1",
"jX c #D3CCD3",
"kX c #DBCAD4",
"lX c #D7D2D3",
"zX c #FDE6C2",
"xX c #FDEAC4",
"cX c #FDE9CA",
"vX c #FFF1CB",
"bX c #D7D5E0",
"nX c #E2DBE6",
/* pixels */
"#.%.*.#.&.%.%.X.| U | ..5.5.5.*.%.$.@.@.o.#.| | @.@.#. .$.#.@.I @.=.h.e.i.i.7.h.a.e.*.s.&.&.q.k.a.i.u.i.i.&.t.t.&.5.&.%.%.%.&.&.",
"&.&.#.#.$.| | | | | &.5.5.&.5.4.$.#.@.[ L [ | | @.@.$.#.#.#.#.$.%.*.k.k.u.i.*.h.u.i.g.g.x.x.z.p.k.z.c.x.x.x.z.g.p.u.g.u.g.p.g.g.",
"5.%.$.#.$.| $.| X.%.5.2.4.4.%.$.X.| ..$.$.$.......[ | | ....#.| o.#.p.a.g.i.i.&.%.&.a.p.l.}.p.e.u.g.z.z.k.k.x.k.x.k.k.k.z.z.z.x.",
"*.#.%.%.%.&.&.%.X.$.$.$.$.4.#.$.| | ..$.| } ..| ....@.@.$.2.$.$.$.%.p.p.l.l.g.t.i.u.z.p.g.x.z.a.k.u.u.z.x.k.c.c.z.k.g.g.g.g.g.z.",
"&.*.t.i.5.5.4.2.%.*.4.4.4.4.5.5.&.&.t.4.5.2.%.P J c K ' ' ' ' ` c K K J P P J G c J K K K $.*.%.&.*.#.i.&.*.&.e.g.e.e.6.w.&.&.e.",
"#.#.t.u.i.5.4.2.7.0.6.i.7.6.7.i.u.i.i.i.l.l.5.J x c c J J c x z u u j j j i j i u z j b b I o.[ @.@.=.#.@.#.@.@.=.$.#.#.#.#.$.#.",
"#.| &.g.i.i.6.i.6.6.7.i.i.7.i.6.7.t.&.w.5.q.*.I ' ' ' ` J H J v K J K K H x c j j x c K H $.#.#.@.#.#.#.$.#.#.=.#.#.#.#.#.%.#.#.",
"#.| q.z.u.g.h.g.h.h.i.6.5.%.*.*.2.5.w.&.q.t.h.L J K [ P G K K I H K J J U H H v x c K L L @.@.#.#.@.#.#.#.#.#.#.#.#.#.=.$.#.%.#.",
"r.U @.#.#.#.#.=.$.$.#.#.#.@.%.i.0.*.s.%.*.h.6.6.*.*.*.h.e.*.6.6.i.5.4.%.5.5.q.a.q.q.w.w.&.u.h.h.g.g.e.h.i.e.i.e.g.&.#.| @.$.| $.",
"%.#.#.#.$.#.#.@.=.$.#.#.| #.w.x.h.s.0.g.h.h.h.h.v.v.s.k.h.v.0.0.l.9.v.l.h.v.a.k.a.a.h.a.g.x.h.h.g.k.g.k.h.g.g.h.i.&.$.#.#.| | | ",
"#.%.#.=.#.#.#.#.@.@.@.#.I | &.c.h.c.k.c.h.v.v.k.g.j.h.h.h.l.9.E.R.E.0.E.h.*.6.6.h.k.h.h.h.k.k.k.j.c.k.h.k.g.i.6.6.&.$.@.$.@.[ [ ",
"#.=.#.#.#.#.#.@.$.@.#.=.%.#.w.k.j.k.h.z.c.j.c.c.c.c.Q.}.|.6X6X5X5X4X4X6X6X|.Q.0.v.k.v.h.c.k.k.k.k.g.g.i.i.g.i.h.i.i.%.$.@.$.@.@.",
"a.k.h.e.e.g.g.#.| | | #.#.@.@.I U U ' ' X.2.#.[ A -.6X+X{.'.'.'.'.'.'.'.].+X3X+X0.s.i.l.l.l.e.u.e.h.e.e.e.e.h.*.&.7.i.5.4.6.h.h.",
"k.k.k.k.a.g.g.| I  .| | I #.@.I I I U ' ' $.$.[ +.R.G.5 7 7 C R M 5 M 5 5 5 C T.}.0.7.p.7.y.*.w.e.e.h.e.h.g.h.*.5.i.l.h.l.0.l.l.",
"v.j.h.k.a.a.t.%.| %.#.[ [ @.#.| #.| I #.O.{ :.,.! a A :.' } } ` O.{ { ] { O.o.y f R.E.l.g.w.k.e.h.e.e.e.a.g.x.v.h.g.g.h.h.*.6.6.",
"c.c.j.h.c.c.p.%.| | | $.#.| [ #.o.$.=.I o.O.,.~ a 3.P q q q $ q @ % q @ * q i 1.Q 3 ,.R.7.g.a.h.e.e.h.h.g.k.h.h.h.l.v.l.h.0.6.h.",
"e.s.i.#.*.%.%.%.*.%.$.*.%.e.5.t.5.5.e.e.7.0.Q k 2.t % O O # O o p : & # O O O $ P E s P.{ o.L I @.@.#.@.| $.%.| %.#.#.&.*.*.4.*.",
"e.e.i.#.*.$.$.%.#.&.%.*.%.&.*.&.5.&.q.t.8.,.a 1.t % p p + ; , M ).Y.p & ; , p N * ] n R :.[ @.@.[ | [ L U | ' L | #.&.#.*.*.*.*.",
"&.w.t.&.6.*.*.*.#.#.%.*.%.*.*.*.&.#.r.%.R.~ ` k # / ^.^.2 , 1 U.F.F.OX, , M /.^.W < +.t ,.} [ K I L K K H K U K I %.w.t.*.a.0.h.",
"$.*.%.&.6.*.*.*.%.%.=.=.=.%.#.*.%.*.r.%.P.d { $ p !.B F.^.X F.`.B ).aX> , U.F.B ].2 h l / -.` | [ K K K L I |  .| %.w.q.w.w.w.=.",
"K U U L | I I | L L I L I L L K L L U o.>.m E # I.[.K.{.oX- U.jXaXkXsX> 7 oXG.).fX4 t j n ,.1.$.#.#.| | #.#.#.%.#.X.%. .#.#.#.#.",
"I | | | I | I | @.L I @.@.| | [ L L I o.) R E & Y.jXaXkXoX> [.hXaXaX`.> ( gXdXfXfXM $ j n W.1.$.&.&.%.#.%.%.#.%.#. . .| | | | #.",
"| #.%.%.$.%.%.| @.| @.o.@.@.o.o.Y $.@.1./ W a # oXsXaXaXF.4 !.{.lX(.4 4 H.gXaXdX).2 $ A n P.2.%.#.#.#.#. .#.#.%. .#. .%.#. .|  .",
"#.#. .%.$.%.#.%.%.4.*.*.4.$.%.%.%.*.4.1.) N g : Y.(.kXJ.M M ).G.G.6 ).B G.(.gX[.4 M * k R W.$.=.*.#.=.%.#.#.#.#. .| %. .%.%.#.%.",
"' ` J J J J J L l.h.l.h.0.h.h.l.v.l.c.}.,.~ z : XXK.B B oXB {.fX[.{.hX7 ).U.B 7 [.F.* l R ~.0.s.h.h.c.h.e.h.g.k.&.U | | #.I | | ",
"J J J ` J l c J h.h.l.l.h.9.l.9.E.E.9.Q.>.R t # oXlXdXaXdXC [.jXnXhXdX6 Y.kXsXoXjXG.+ h R ~.9.v.h.h.k.k.k.k.h.g.&.| #.| I I |  .",
"J c x c J c j J 7.l.l.v.l.l.l.}.~.L.W.~._ T y X _.jXnXhXdX7 [.lXbXhXdX6 /.kXnXjXhXG.& f W ^.Q.c.v.k.k.k.k.h.a.g. .| #.| @.I @.| ",
"J J J J j c J [ h.h.l.l.9.l.9.R.^ 8 5 !._ d t . n !.{.`.!.; G.XX{.{.!.; M OXoX_.(.2   a R ^.}.v.c.j.c.x.s.h.x.z.&.| | | I I @.@.",
"[ | | [ L [ [ $.[ o.[ [ o.O.} <.5 C = D.C D y q h S k S k t u E E A S u g A ~ l S y q h 3 _ 3.%.*.*.e.*.%.%.%.#.i.#.5.#.%.*.*.w.",
"$.@.| [ @.$.@.@.@.[ I o.@.] { ,.8 D.= 5 0.eXeXeX<X9X9X9XeXeX9X9XeX<XeXeX9X9X9X9XeXeXrXyXQ.5 0.6.*.h.h.e.%.%.w.#.#.#.%.#.&.*.%.%.",
"$.$.$.$.#.$.$.$.$.@.o.o.o.[ ] <.C 8 8 1 0.=X&X%X*X%X&X#X#X*X%X&X%X=X%X%XS.%X&X&X%X%X&X<X}.* 8.6.%.e.e.*.q.&.a.e.&.%.#.%.&.w.%.%.",
"#.#.#.@.@.@.| | L o.I o.o.@.[ +.T.D.K.5 S @XA.A.S.S.S.Z.Z.Z.Z.S.Z.Z.S.S.Z.Z.C.Z.A.A.V.N.A f ,.O.@.@.@.#.%.#.#.| $.#.%.#.%.=.%.*.",
"| I | @.@.I L L P #.$.$.$.4.7.3.,.W.W.L.< y e r 0 0 w r r r e w e e r w w w w 0 9 w 9 q < -.` K ' L L K K G x x c x J H H L ' L ",
"@.@.@.@.@.@.I | %.$.$.*.4.$.%.6.6.$.2.R.-.< i s.m.m.b.m.m.m.M.N.m.M.m.m.m.m.B.m.b.s.F i n L.` L U ' L L K K L L K L ' ' | L K U ",
"=.@.$.=.| I L @.L | $.$.*.4.$.%.3.5.6.0.,.f L :X1X>X<X<X<X>X>X>X>X>X>X>X1X:X1X1X>X:Xd.i T _ ` [ L L K K J K K K K L ' | | ' [ | ",
"4.*.*.%.*.*.#.%.&.&.@.| @.$.@.#.| %.=.%.) f P 1X;X;X;X;X&X*X%X*X&X%X*X*X*X*X:X*X%X>Xf.i m I.} %.| | %.| | #.#.| | | | | #.| | [ ",
"0.h.h.h.c.c.c.c.x.g...[ @.[ @.@.| U I ..-.d P 1X,X;X;X;X&X*X;X;X*X;X:X&X*X&X*X&X%X<XM.u W ~.}.a.z.z.h.g.k.x.l.g.x.g.g.k.u.u.t.| ",
"g.h.h.h.l.h.h.c.l.y.[ [ [ L [ P | K U [ / d $.uX0X0X0X8X<X,X,X;X,X;X;X;X&X&X;X;X;X:XB.u n ~.p.a.a.a.h.a.g.g.g.h.g.i.i.g.t.t.a.| ",
"l.l.h.v.l.c.c.c.}.i.P | L J G L v v b l W d :.xXxXxXcXcXxXxXiXuXyXwXtX9XqX2X,X;X;X,XB.h R W.7.t.e.i.e.g.a.h.i.i.i.g.a.k.g.e.a.@.",
"6.6.h.g.i.7.g.*.a.6.| $.L L L [ ' ' ' ` ) d :.cXzXcXcXcXcXcXxXxXzXxXxXxXiXiXuXuXrXiX Xy R W.7.w.i.&.&.*.*.i.e.i.i.i.w.g.a.a.e.#.",
"@.o.$.$.$.$.@.[ $.$.$.$.&.%.#.%.%.| #.O.) f { 0XtXtXiXzXxXzXxXxXxXxXcXcXcXxXxXxXxXvX-Xg T I.O.@.I @.I I @.%.@.@.| | @.@.| I | #.",
"| o.@.o.o.o.$.o.$.%.%.$.$.$.%.%.=.| @.O.) s ] rXeXqX8X7X7X7X7XtXpXpXxXcXxXcXxXxXxXcX-Xg T L.[ K K L G K P =.@.L L L I I I | I I ",
"$.$.$.$.$.@.$.$.4.*.$.| #.#.$.$.$.| #.$.-.s @.rXrXuXiXiXpXpXtXtX7X7X5X7X7X,XqXyXwXiX|.j W _ P L K K J G L #.*.#.@.@.I I L U U U ",
"$.$.O.@.O.o.[ o.| @.| ' L J J U | | #.} ) s P 1X;X,X2X8XwXwXrXrXrXuXuXyXrX9X9X,X8XwX Xu W ) P L L L L [ | #.$.*.&.*.%.*.&.&.$.&.",
"[ [ ' J P K P J c J J P ` K K [ @.$.$.$.>.s x C.;X=X;X#X;X;X;X*X&X,X9X0XeXrXuXuXuXpX0.u ~ ,.O.%.$.$.%.*.*.*.*.*.%.&.e.g.u.i.i.i.",
"[ [ J J J K K K K J P J K U ` | @.#.#.1.R.n x r.$X$X=X=X*X:X*X*X%X=X;X;X;X,X2XqX-X@XP a ) ,.1.$.#.%.4.*.*.*.*.6.*.*.e.e.t.a.i.e.",
"P J J ' K P ` K P K ' J v K K | @.=.#.$.P.~ u H M.f.V.Z.Z.$X$X$X%X&X&X$X#X;X@XN.N.=.h f :.:.$.$.$.$.$.%.%.%.%.=.%.6.h.i.g.g.i.*.",
"$...$.$.$.@...$.......| ..| [ #.%.#.#.$.:.<.u x Y @Xm.f.f.f.m.m.f.f.f.M.M.f.M.N.d.F h ~ E.3.4.$.o.o.%.o.$.@.o.@.@.@.#.%.#.#.$.#.",
"%.*.$.$.$.%.$.$.#.$.X.$.....$.%.X.| @.$.O.0.>.t x Y B.A.f.M.V.V.M.M.M.V.f.A.V.s.D S f W.R.0.6.#.P @.| | | [ | | ..| | | | ' | | ",
"..[ @.$.@.[ [ [ | #.| | ......| ....I [ P :.Q.-.t j G =.n.n.b.b.n.n.d.f.d.r.I j h y R.R.9.3.&.| L L L L | ' K v v c J H H K | | ",
"K P P L ' | [ [ [ [ | | ..| ' ' ' ' ' ' P *.}.}.,.d f h i G j x Z Z x j D h f s W ~.9.7.6.5.&.I L | K K J H H x j b x x H c x H ",
"%.%.5.$.J P ' J ` K ' [ ' K v ' ` V ` c J #.%.&.T.I.( S h y h g a g f k k k W >.,.+.$.$.#.#.&.| #.| | | | | L I L ' I L | L K | ",
"l.l.}.a.x c J c j j x x c l x x v c c j l c b x A { { ` ] ;.{ { { ;.;.! ;.,.;.E P J P I L [ P $.$.%.| %.w. .#.#.| | U L L ' | | ",
"}.l.l.y.J J P J ' [ ' c J K c x c ' J J ` c v H G P x c E Q ~ k g N Q Q Q E l K j K @.K P [ K $.%.$.#. .#.#.| | | | [ | | | [ ' ",
"z.x.x.y.' [ K [ | ..| ' K ' ' v v ' ` v ` ` ` K x v b c ` ' ' j j c J ` ` K c H x G K ` ' K I | | #.I | | I %.| #.#.| | | [ | ' ",
"$.&.$.......[ [ K [ ..| ' | ....| X...| ..X...[  . . .X.X...$.$.=.@.%.%.%.%.@.#.#.$.| [ | U #. .%.%.%.%.%.%.r.&.#.#.#.| | [ ..| ",
"K K K K L L L L P L L L | | | $.| @.| X.$...$.$.&.$.5.2.2.e.$.%.#.$.%.q.%.%.%.#.#.#.%.r.X.q.%.%.q.q.q.%.q.#.r.q.q.%.q.&.| ' ' U ",
"| [ | I L | | | | | | L [ L [ I I @.%.%.$.| $.%.&.%.2.*.X.&.%.%.#.#.%.#.#. .#.#. .#.#.U r. . . . .X. . .q.#.#.w.w.r.q.%.| H v v ",
"| | | | | | | | | | | | @.| | #.| #.%. .#.@.=.#.%.%.%.$.$.#.%.#.| #.#.#.r.%.#.U #.U  .I U  .%.#. .q.q.q.q.r.r.%.a.e.e.q.| L K K ",
"H L I I | | L L L L I I I I K L P #.w.w.e.e.*.*.w.q.*.%.&.&.w.q.w.&.$.$.q.q.e.e.w.e.r.&.q.w.&.%.a.a.k.a.q.a.k.a.q.q.q.q.%. .X.5.",
"L L L [ ' L v v v K H J H H x v H $.x.p.g.g.h.e.h.i.*.*.&.w.a.q.7.*.%.%.e.a.k.k.g.g.h.6.*.0.g.g.k.k.k.a.e.e.a.g.e.w.e.g.a.t.a.k.",
"L I L | L K H K K K K K K K U H U %.p.p.g.e.h.*.i.6.*.*.&.#.%.%.#.$.o.#.#.%.e.k.h.h.g.g.g.i.g.g.k.u.g.a.a.a.e.i.g.a.i.a.w.w.w.w.",
"' | | ' L H v v | | ' U ' H L I L #.&.&.e.h.w.w.=.h.6.6.6.*.*.=.$.$.@.@.@.=.e.h.h.h.g.e.e.e.i.g.h.h.g.h.x.k.k.k.g.e.*.&.#.&.*.*.",
"%.X.| ..X.| | | |  .%. . .| | | I @.#.#.$.#.#.#.$.#.@.$.$.o.$.o.@.@.I @.o.o.$.@.#.| =.@.#. .@.=.#.#.%.%.*.w.w.*.*.*.&.&.&.&.=.$."
};
