/* XPM */
static char *N0UyQkM5RDMtRUE5OC00MzM0LUE3OTgtODA5N0E5MkI5QjI5JTI4MSUyOQ__[] = {
/* columns rows colors chars-per-pixel */
"64 64 219 2 ",
"   c #160100",
".  c #1D0700",
"X  c #2B1401",
"o  c #351B01",
"O  c #3A1E00",
"+  c #351A05",
"@  c #3D2201",
"#  c #3A2207",
"$  c #411F00",
"%  c #432401",
"&  c #482703",
"*  c #452A02",
"=  c #4A2C03",
"-  c #42250B",
";  c #452B0B",
":  c #4C2C0A",
">  c #522E05",
",  c #522E09",
"<  c #4E3203",
"1  c #4C310A",
"2  c #533404",
"3  c #593306",
"4  c #553A04",
"5  c #54340D",
"6  c #5B350C",
"7  c #533A0C",
"8  c #5B390D",
"9  c #5C3B05",
"0  c #4A2D10",
"q  c #442C13",
"w  c #4F3312",
"e  c #4B3619",
"r  c #543413",
"t  c #5A3613",
"y  c #563A14",
"u  c #5C3A13",
"i  c #543B1B",
"p  c #5B3B1A",
"a  c #52341A",
"s  c #623B0E",
"d  c #633C12",
"f  c #643E19",
"g  c #693E11",
"h  c #593D22",
"j  c #5C4214",
"k  c #5C411B",
"l  c #63440C",
"z  c #644313",
"x  c #6B4415",
"c  c #6B4C16",
"v  c #64431B",
"b  c #6D461A",
"n  c #674B1B",
"m  c #6E491C",
"M  c #634813",
"N  c #744615",
"B  c #794617",
"V  c #744915",
"C  c #74471A",
"Z  c #734A1B",
"A  c #794A1A",
"S  c #794817",
"D  c #6C501B",
"F  c #6A5212",
"G  c #73541C",
"H  c #755619",
"J  c #724A0F",
"K  c #5D4224",
"L  c #5D412B",
"P  c #634523",
"I  c #694722",
"U  c #654A24",
"Y  c #6B4B24",
"T  c #644528",
"R  c #634A2B",
"E  c #6D4E29",
"W  c #744D22",
"Q  c #784E23",
"!  c #714D29",
"~  c #6D502E",
"^  c #6F5924",
"/  c #745325",
"(  c #73532A",
")  c #785229",
"_  c #7B5D2B",
"`  c #785A26",
"'  c #694E31",
"]  c #6C5434",
"[  c #725433",
"{  c #755A33",
"}  c #7B5C33",
"|  c #755A3B",
" . c #7E612C",
".. c #7C6132",
"X. c #7F623B",
"o. c #775C41",
"O. c #7F6246",
"+. c #9D741E",
"@. c #856426",
"#. c #82622B",
"$. c #8C6A2C",
"%. c #86692B",
"&. c #926E2B",
"*. c #946E24",
"=. c #8F702D",
"-. c #967426",
";. c #9C7424",
":. c #9D7825",
">. c #95742C",
",. c #9C752B",
"<. c #9E792A",
"1. c #816432",
"2. c #8C6D35",
"3. c #85663B",
"4. c #936D33",
"5. c #8F7237",
"6. c #937334",
"7. c #9C7632",
"8. c #9C7A33",
"9. c #95753B",
"0. c #947A3C",
"q. c #9C7B3C",
"w. c #977738",
"e. c #A17525",
"r. c #A07823",
"t. c #A17629",
"y. c #A0792D",
"u. c #A17B34",
"i. c #A27C3B",
"p. c #A07737",
"a. c #8C6D45",
"s. c #856744",
"d. c #957644",
"f. c #9C7C45",
"g. c #93744C",
"h. c #9B764E",
"j. c #987849",
"k. c #906E52",
"l. c #927454",
"z. c #9D7B54",
"x. c #9D7D5B",
"c. c #987755",
"v. c #90734A",
"b. c #A27C47",
"n. c #A27D55",
"m. c #A37D5A",
"M. c #997E61",
"N. c #9D8238",
"B. c #A2813A",
"V. c #9D8146",
"C. c #9D805E",
"Z. c #A68156",
"A. c #A98257",
"S. c #A5825B",
"D. c #AA855C",
"F. c #AD895E",
"G. c #A58A5B",
"H. c #B0865E",
"J. c #B18B5F",
"K. c #A1804B",
"L. c #9B8263",
"P. c #A38563",
"I. c #AB8661",
"U. c #AE8B62",
"Y. c #A7896C",
"T. c #AC8C6A",
"R. c #A78B63",
"E. c #B28D63",
"W. c #B98F65",
"Q. c #B38E69",
"!. c #AF916C",
"~. c #B59165",
"^. c #B99366",
"/. c #B5926A",
"(. c #BB956A",
"). c #BD996D",
"_. c #B99865",
"`. c #AD9273",
"'. c #B59571",
"]. c #BA9671",
"[. c #B69973",
"{. c #BE9A71",
"}. c #BF9C72",
"|. c #BF9C75",
" X c #BD9B73",
".X c #BE9E7B",
"XX c #B3987A",
"oX c #BEA27D",
"OX c #BFA275",
"+X c #C1976B",
"@X c #C09A6E",
"#X c #C19B6E",
"$X c #C09B71",
"%X c #C29D72",
"&X c #C19D75",
"*X c #C49E75",
"=X c #C39D72",
"-X c #C99F73",
";X c #C69F78",
":X c #C3A26F",
">X c #C6A175",
",X c #C4A175",
"<X c #C8A377",
"1X c #C9A376",
"2X c #C5A37A",
"3X c #CAA579",
"4X c #C9A57A",
"5X c #CBA97C",
"6X c #C7AB7D",
"7X c #BEA684",
"8X c #C19F84",
"9X c #C4A583",
"0X c #C7AA83",
"qX c #CAAB83",
"wX c #CBAC89",
"eX c #C5A786",
"rX c #D3AD8A",
"tX c #CEB184",
"yX c #D4B589",
/* pixels */
").(.(.(.(.(.(./.F.F.H.^.{.$X X{.).^.E.Q.E.^.E.E.^.^./.Q././.Q.E.E._.=X=X=X;X-X*X#X:X).).,X#X=X1X-X=X<X<X,X=X=X=X$X$X$X).).).#X#X",
").)./.(.~.~.E.F.J.W.).#X$X+X{.{.E./.E.E.E.E.E.E.^./.(./././.(.(._._.,X*X*X=X*X*X,X}.,X,X5X5X<X,X<X4X3X3X<X<X3X<X,X<X*X*X*X*X,X,X",
"$X(.W.Q.!.U.~.~.(.).).).(. X(././.U.Q.Q.Q.(.E.E.U.E.E.E.~.~./.(.~.(.,X2X=X=X$X$X/. X,X,X,X2X<X,X,X=X<X,X>X<X3X3X5X4X;X4X<X3X1X3X",
"(.(.).).).).].].^././.E./.(./.Q./.Q.E./.E.E.E.U.^.E.^.E.~./././.!./.&X;X<X<X;X{.,X|.&X=X,X2X2X#X3X,X<X<X1X<X3X5X4X-X;X,X<X,X<X1X",
").+X#X,X}. X/. X). X).).]. X|.|. X|.|.&X|.&X{.I.n.n.S.D.I.D.S.m.z.S.S.S.m.m.A.n.n.n.S.D.n.^.(.+X+X(.+X#X+X).+X$X$X#X).#X).).).#X",
"(.(.).,X}.). X X X$X=X=X|.}.|.|.|.,X|.&X;X;X$XP.m.S.S.S.A.m.n.z.c.c.z.z.n.n.n.h.h.z.h.n.h.E.W.J.~.^.^.^.^.^.(.E.^._.^._.^.^./.(.",
"~.J.#X<X,X|.|..X X=X=X=X=X#X$X$X}.).).OX].].}.U.I.U.U.F.S.S.S.S.S.I.S.F.G.n.n.h.c.z.S.U.D./.(.^.~.^._.^.(.(.E.W.^.^.^.~.(.(.(.W.",
"^.J.+X1X,X,X2X,X&X=X=X=X).).).(.).)._.).).&X#XD.I.S.S.S.S.D.U.U.G.D.S.F.D.D.I.n.n.n.G.D.I./.^.~.^.W.^.+X(.(.(.^._.^._.^.E./.(.].",
"^.E.^.(.(.(.(.(.(.(.^.^.^.E.).=X).OX).).:X).:XOX#X#X#X#X}.).).,X=X).).).).).OX#X).).$X).).=X-X:X:X:X,X,X=X,X,X).,X#X^.E.~.~.^.Q.",
"+X^.(.E./.(./.^.^.~._.J.^._.).3X<X=X<X<X,X1X6X,X<X,X5X:X,X,X,X,X:X:X,X<X,X,X:X,X<X,X;X*X3X,X1X>X,X,X<X<X,X,X<X,X#X).(.(.J.F.E.E.",
"^.(./.^.(.^.W.(.^.~.~.~.~.F.).5X3X<X5X3X<X1X,X6XtX1X,X5X1X1X5X1X,X1X,X,XOX,X).,X=XrXrX9X,X,X<X2X1X<X,X,X,X,X<X).).}././.~./.~.F.",
"^.^.~.^.^.^.^.^.^.^.^.(._.~. X,X*X3X4X9XqXqXyXv.^ 6XtX,X6X<X5X3X6X6X1X6X1X1X6X6XyXa.Y g.yXqX0X2X2X,X<X).,X:X).).,X}././.~./.F.~.",
">X>X=X#X=X-X<XE.J.E./.E.U./.!././.U.R.T.L.k y n D 7 { [.`./.U.~.E.F._.U. X9XwXl.t m D D j k L.9X[.,XOX).,X(.OX}. X X,XOX).OXOX,X",
"1X1X1X1X=X*X*XW.E.E.^.E.U./.[.T.Z.D.P * y  .` 6.V. .^ * 3.U.R.E.U.F.U.~./.R.1 U ` w.N.6.^ ..k = D !.~.,X2XqX|..X X X,X2XOX2X2X,X",
"1X1X1X3X-X=X*XE.E.E.Q.(.[.S.l.X.& = ` $.>.u.p.7.>.u.w.2.M = a.P.[..XS.g.7 4 %.=.B.-.;.<.8.,.&.$. .< * X.T.U.wXtXoX2X,X,X). X}.,X",
"6X5X1X1X5X5X;XQ.{.&XF.3.3.u * M d.6.8.,.r.-.e.,.e.,.,.,.w.j.p P l.l.[ : 2.9.8.:.;.;.;.;.:.r.e.u.w.w.0.c & y z.g.!.tX6XOX,X,X X.X",
").OX#X+X=X/.;X8XO...^ 3 9 4.i.u.,.,.-.;.r.;.e.e.;.,.8.w.V.^ P h + . ; g.V.q.,.;.e.t.e.e.+.:.;.,.,.,.,.u.p.7.4 < ~ O.T.[.).).).).",
",X).#X_.(.&Xs.K L k { K.i.7.:.-.;.-.:.;.-.u.7.7.w.N.%.2 4 = * t h q @ = 4 l q.w.7.,.,.;.:.-.;.;.;.e.e.;.<.6.f.G.K   x. X_.).(.).",
"OX).#X+X).,Xz.a.k K d.9.7.-.;.+.r.+.;.<.:.-.2.d.7 * < 2 3 m W W I p p : % % ; * ) d.7.w.,.t.t.;.-.;.;.e.8.6...% ] c.[.,X+X:X,X,X",
"~.(.).+X#X_.OXOXL.a.* D $.8.-.:.,.i.,.&.=.H % @ r u v W Z A V Z f 6 t t p i ; 0 @ @ = 2.$.6.i.,.,.>.i.&.@.4 v x.R.2X|.(.#X#X).(.",
"F.F.F.J.E.E.F.U./.T.U.} 7 ^  .V.2._ 1.% O > l x Z W Z Z Z N A N C 6 s 6 t t t t 5 2 : O o v ..#.0.0._ n 5 n.E.#X^._.^.(.~.E./.(.",
"F.~.J.E.F.E.F.E.F.U.Q.T.XXL o { p o O P Y m A B B B A C N N V Z g 3 6 6 6 t t 3 6 u p a i - o o ^ j o M..X{.+X^.E.~.E.E._.^.(.Q.",
"~.(.~._.(./.(.E.~.~.!./.`.XX+   ; { ! Y W Z N S N N B Z N Z V Z g s 6 6 t 6 6 6 t , r t r i K i .   o.9XQ.(.Q.W.W.W.W.(._.~.F.^.",
"~.(.^.(./.(.(.(.(.(.(./.,X] o ' y @ % m Z Z V V V N Z N Z V V H f 3 6 6 6 6 t t t p i r t = o % R k o G.(.E.).(.J._.^.(.^.^.(.E.",
"F.S.I.S.A.m.I.E.*X2XOX0XX.n #.b.%.H G % O : I v m Z V V V V J J x 6 6 t 6 6 t t t e w o o 7 ` H q.6.H M G.2X,X2X+XJ.J.E.~.J.~.J.",
"S.S.m.D.D.n.m.F.*X2X6X .c q.7.,.,.B.q.%.1.n @ % 8 M z G W Z V c M 3 u t p t , 1 % o * ..#.2.q.<.;.-.i.$.M F.5X2X#XE.J.^.J.F./.(.",
"m.m.m.m.m.m.z.S.oX0X1.c 8.;.;.<.;.*.<.u.u.7.$.4.2 % = u t P / Z x t p 0 ; & % O H 6.>.8.w.7.<.-.-.<.-.u.$.s U.oX^.U._.E.E.E.E.E.",
"A.I.m.m.n.m.S.R.9X3.c q.;.:.;.;.r.r.e.*.*.;.<.7.w.f. .= = 2 2 p T % @ : ; l h.w.7.<.;.-.:.;.;.;.<.<.-.<.y.$.z !.,XU.~.T.~.E.F.~.",
"E.E.F.J.F.F.R.[.} b i.>.;.+.:.;.+.+.e.;.,.,.;.;.;.<.,.i.i.D r o # # p 2.i.7.7.,.<.*.t.y.;.e.;.e.;.<.;.-.-.8.%.l S.OX X/._._.(.).",
"(.Q.E.F.E.~.[...I f.7.;.+.;.;.;.e.+.;.;.t.;.;.e.e.+.r.-.,.f.U # X q s.q.,.e.;.e.;.;.;.;.;.;.;.e.;.;.;.;.-.7.q.2.v c.).(.).(.#X(.",
"'./.(.(.E.[.] k d.w.8.e.+.+.e.e.e.+.;.t.;.e.t.e.e.;.;.,.0.u ; q + e O  .q.-.;.;.e.+.;.-.e.;.;.;.;.;.:.y.w.9...7 o X.&XW.+X).(._.",
"Q.].E.E.~.OXK * 4 %.@.>.u.u.;.-.;.:.r.;.t.e.e.e.+.;.,.0.z @ p ; o K r O #.q.,.;.e.+.e.e.;.;.,.y.u.u.*.$.8 = K R.L./.(.+X(.).).).",
"E.E.Q.W.Q.E.G.G.z.y 5 I ` H 8.N.<.-.;.t.e.e.e.;.;.,.q.u % t u : o i t r @ _ 8.;.;.e.e.e.t.p.B.#._ ..Y 1 a.m.m.I.I.S.A.D.I.E.E.I.",
"~.E./.^.W.E.E.~.'.'.9Xk.k n ^ F @.B.u.,.,.,.;.,.,.q.z % y u u = @ K 5 p r % #.q.,.<.p.i.4.Z D * o X ' XXI.S.U.D.m.A.D.F.S.I.H.I.",
"/./.^.~.E.J.F.F.T.U.).[.6X[.+ X < j v d.p.i.,.-.0.z @ u t , f f @ ~ v 5 7 5 % ..V.0.n v , o O 1 k @ L `.S.I.D.H.D.F.I.I.E.F.J.E.",
"_._.).^.).(._./.~.(.U././.Y.# h q @ O 2 2 c q.q.z % u 6 r f ) s % ( Z b 6 y 1 = 7 2 @ O ; p p r j @ ' XXU.I.E.I.H.J.E.E.U.U.E.H.",
"OXOX#X,X3X3X3X<X6X<XF.F./.Y.- a p 8 u & * % ; = * 5 7 3 d Z Z u $ ! C Z b 3 8 1 % * y y u 5 6 f U * ] wX&X4X;X-X=X=X*X,X&XOX#XE.",
"OX,X,X,X2X3X3X<X<XOXE.F.T.I.- T v 6 s 8 t u ; 0 t 8 6 d Z b W d $ Y Z A Z x 6 6 r t u 8 d C C C / 1 [ wX&X2X-X=X<X=X4X2X=X=X=XE.",
",X2X5X9X3X5X6X6X1X,XF.F.T.z.- Y Z C N s s 6 t t 6 9 s Z Z Z A 8 % E Z x S Z x s d d x c V V A C / > [ 0X&X$X=X=X#X=X=X*X).=X=XW.",
"oX2X2X2X2X2X<X,X,XOXU.~.E.n.% I W B N S B g s g d d V V Z Z G d @ E V A N S N S Z N Z V V B C C Q > [ 0X X,X-X=X,X,X,X2X<X,X-X^.",
"E./.(././._./.U./.(.(._.(.T.& Y C C Z V Z C Z Z B Z V J V V / 8 @ Y m V V N A C B V V V V B B C W , E |.E.(.W.^.~._./.(.E.E.~.^.",
"!.T.~.T.~.U.~.~.Q.(.(./.].U.- T Z V V c Z Z V N N S N S V V A 8 % E V V V Z B B V V V V N N Z C Q , T Q.I.(.^.E.F.F.E.E.E.J.J.E.",
"~./.~.~.~.~.~.!./.].W.W./.T.; T W Z V V c Z Z V S J S V V Z Z u $ Y C V V V V N Z N V V V J V V Q , T T.G.(.{.E.J.J.F.F.E.F.J.J.",
"/./././.!.~.U./.].{.Q.Q.Q.S.- P C V V V V c Z C J S N S V Z W u % ! m B V V V V N V Z V V V V N Q , P `.G.(.(.).#X(.(.(.^.E.~.~.",
"T.U.U.I.G.G.S.S.S.S.S.I.U.z.* Y V J V V N B B B V V V V Z Z W s $ ! Z V V V V Z V B C Z N V N C Q , E 7X].)._.(.(.).#X=X,X,X=X,X",
"F.U.m.P.R.F.G.A.S.D.I.I.I.C.% U V V J V B B B B N V V J V c Z u $ E m V c V V V N Z Z V Z N V C Q , ' 2X]. X X).(.#X$X=X,X=X#X).",
"F.S.I.m.G.F.F.A.S.S.I.I.R.M.@ I Z Z V V V Z V V V V H J V c W u @ E Z V V V V V V Z V V V V N Z W = ~ 7X/.).).).).#X=X,X,X,X,X).",
"~.E.Q.Q.U.!.U.F.E.I.Q.U.T.m.- U m Z V V V V V V V V c V V V A s $ E V N N S V N B V V V V V N B ) = E .XE.(.E._.^.(.(.).#X}.)._.",
"_./.).(.{.(././././._././.T.; v I W C C N V N V V V V V V V A s $ ! C V S V V N Z V V V N A W W Y : E  XU.U.~.E.E.F.E.W.E.H.U.J.",
"^.^./.E.(.E.E.^.~.J.~.!.R.[.x.& , d d W W W Z N N Z V V V V G u % E m Z J V V C N c V A A b 6 p & P R.T.U.F.D.F.E.F.H.H.F.F.E.^.",
"U.F.I.U.T.U.U.U.U.E.F.G.Q.`.Y.Y.s.0 a h r f ) ! Z V V V V Z Z u O ! m V N J N B W ) Y 5 5 y i h P./.I.G.F.D.D.n.z.n.n.m.A.Z.n.D.",
"T.E.Q.E.I.E.U.I.F.F.F.~.Q.I.I.Q.Y.Y.Y.' i h : , b / W V b b / d @ Y Y Z V V Q ! t = 5 P p l.eX`.`.T.I.S.F.A.n.A.n.A.m.A.F.A.S.A.",
",X,X2X XS.G.P.n.n.n.A.n.m.m.n.m.m.m.M.m.`.l.T ~ r @ r E Y W W 6 % E I ! ! v - - K R } '.[./.P.!./.Q./.(.{./.^.^.W.W.E.H.E.E.E.E.",
"2XOX2X.Xm.m.S.D.n.F.n.n.m.S.m.n.E.m.m.m.m.m.I.Y.s.o.] % % u ! f O E I : $ t s.[ M.XX'.R.D.J.F.~.(./.Q.W.^.E.E.J.E.H.F.F.U.U.F.E.",
"6X3X2X,XR.I.I.I.E.Q.I.H.m.I.I.m.m.m.W.m.m.m.S.m.I.S.n.s.l.h O @ o @ @ s.a.k.U.Q.m.n.I.S.J.D.H.W.E.W.W.W.W.W.W.W.W.W.E.W.E.E.E.E.",
"&X&X|.}.Q.Q.U.I.I.E.W.E.E.U.I.U.m.E.Q.m.I.Q.E.D.A.E.A.U.Q.P.M.L.L.L.L.R.(.E.I.I.I.I.H.F.H.H.H.H.(.E.W.W.W.^.W.^.W.W.E.E.F.F.J.U.",
"J.J.E.I.I.I.F.E.I.E.F.E.E.E.^.E._.~.E.E.(.W.E./.(.(.(.(.(.{.{.{.].].|.$X(.(.+X(.+X+X^.(.^.+X+XW.+X+X+X+X+X+X+X-X+X+X(.+X^.E.F.E.",
"A.H.D.A.H.E.I.I.J.E.H.H.F.J.E.E.F.~._.E.^.E./.). X(.].(.(.+X(.^.(.W.W.W.W.(.(.E.J.W._.^.+XJ.+XW.W.W.W.W.^.W.(.+X+X+X(.+XE.D.S.Z.",
"E.W.E.E.E.W.E.E.E.E.E.J.J.F.U.~.F._._.(.(.~.~./././.Q.(.W.W.^.W.(.(./.].(.(.W.W.W.J.J.J.J.^.W.W.(.+X+X+X+X+X+X+X=X=X#X(.J.D.A.A.",
"J.J.E.E.W.E.J.W.E.E.E.J.~.~.J.J.U./.(.^./././. X X).{.+X).+X(.(.W.W./.+X(.W.(.+X^.+X^._.W.^.(.+X+X+X#X+X+X+X#X#X+X(.+X(.~.E.F.U.",
"D.D.F.J.J.H.A.A.H.H.H.H.F.Z.Z.Z.A.^.,X;X,X2X,X=X X).#X)._.}.}.). X).].).#X=X>X-X-X-X+X$X*X2X-X#X-X3X3X-X$X=X-X=X=X#X#X+X#X).=X4X",
"D.D.F.J.J.A.A.A.A.A.m.m.A.Z.A.K.m.(.<X,X*X<X*X=X,X<X=X#X).).).)._._./.(.(.).>X1X-X1X;X;X=X}.*X<X-X*X=X=X#X#X$X=X#X#X:X,X=X#X=X&X",
"U.E.J.F.D.A.A.m.A.H.H.H.H.E.E.E.E.).=X=X=X=X#X#X#X).).+X).(.[.(.~.~.U.~.Q./.#X<X3X<X1X1X,X,X,X>X>X,X-X<X2X<X<X,X,X#X,X).#X(.).$X",
"U.U.E.E.J.D.H.D.E.E.E.E.H.A.F.J.D.W.+X+X#X#X+X+X#X+X).#X).(.[.).(.(.^.Q././.).#X=X).).).(.~.+X:X#X=X=X*X<X3X,X#X,X#X+X(.).(.$X X"
};
