/* XPM */
static char *_8adc9d945a546cea14f665d93ece75fiJoipcKS0i94RzX0[] = {
/* columns rows colors chars-per-pixel */
"64 64 34 1 ",
"  c #97754D",
". c #9B764F",
"X c #9E794F",
"o c #997650",
"O c #9E7B53",
"+ c #A27D55",
"@ c #A57F59",
"# c #A58156",
"$ c #A98257",
"% c #A6835A",
"& c #AA855C",
"* c #AD895E",
"= c #B18A5F",
"- c #AC8760",
"; c #AE8A61",
": c #B28D63",
"> c #B98F64",
", c #B58F68",
"< c #B59166",
"1 c #B99366",
"2 c #B69369",
"3 c #BA956A",
"4 c #BD996D",
"5 c #BE9C71",
"6 c #C09769",
"7 c #C19B6E",
"8 c #C29E72",
"9 c #C5A175",
"0 c #C8A377",
"q c #C6A479",
"w c #C9A579",
"e c #CCA97C",
"r c #D0AB7F",
"t c #CEAD80",
/* pixels */
"33337,63>;;,785542<2222<2<2<22<;<4559945958477697994764744611234",
"4431,,,;=:357553<<<***;;<<222222<499599955990e000eee00e999999999",
"53<<,,,,>375553,2<<2222<<;22;222<<5955945595099999990000e09000qq",
"3333,343,3,,,32,<*;2<*;;<<<<2222<499ee9555qq9ee79900000te90990eq",
"54888553252,2555544542<*#%%;;;;%%%%%*%%#%**#$4467677777997777787",
"428w833,55q5585q595q9e9####%%% #   ### #  ##X=<<1111<61<13311111",
">>785555555555555545554*#%;%%%%%%%%%####X##$$<11<<<<111<11311141",
"2:4w8t8tqqt555554445559##%%%%%%;%%%%%%# #X***<<<<<161<<11111<143",
"6=<6<336,233<13744944444<444444455222442224266799779888497<<<<<<",
"61<113<<222<<<70999999e9t9e99999qqqq999e999990e99900989974<<<<=<",
"16111111,2,<==6ee9ee999e9999999955q5944999e99009000099885442<<;;",
"11<<11112223317099etttt9tteeetttttqq9eee9ee900ee09799988952<<<;<",
"9976699===<11<<1====<44<#*<<<<<<22225999999997977979884555554555",
"90e0090<=<<==<<=<*#*=<==#**<<***%%*;4q99977997777777898855qqqqqq",
"9999977=<<<==<::<=<<<<<<<4<<<<<<4<<<4e999e999776977799q9q5q5q55q",
"et99ee01<=:<:=::<<<<==<<<<<4<4422<22599q997999e9979999qeqqqqq555",
"5954444422<<444444477411<<#=**##$**$*<<<<<<<*<<==111<3<3<4744844",
"49444<<<444444447797779994##X###$$$#*==**$##*<<=<=<===::=<4<<744",
"7744744421441<444611477444#*#*<*<<<<<==**=<<<<**==*$*$$*=<877889",
"41777444224574474447777744*******<=<<<<<<=***#***=$$*==<<4774777",
"==<=<<=<<;<;;;;%**<<<<=<<<***##*1441441<<<<<<<<<<<<=<<161111<111",
"=:===<==;;*;2;;;*===<<<=<<<<<*<<174447774444666644246<111111<<<1",
":322<<<<2<222;;;=<<<<<<<<<<**<;<14444677446461162<<1<<1<1>11<<=1",
"1424244<22222222<4<<<<<122<<<<2;4444744466446616<421<<16><111111",
"**&*##%;55qq5q5q9qq9555595qqqqqq9955477990000960900977701=:>>:>=",
"###&###%qqq5qqqq9qqeqtqqq5eqqtqqeee99eeeee009900070000097=>=:=<>",
"########5qqqqqqq99955595qq99qqqq9eee0ee00eee0ee0090000881=1>===:",
"#######%qqqtqq5qeqqq9599qtqqtqqqeeeeeeeeeeeeeeeeeer090er6<::<=:<",
";<;;**;<2;;;2222<;222;22222222225554424<641464146497433373311144",
";<;;22222;;;;;;;;;;;2;;<;2;<;222442<=<<<<64444446779733<1<447446",
"2222<2<22222;;;;2;;*;<;<;;;;;22222222<47997744799764448841<1441<",
"22<<<2;;;;;;;;;;;222222225522222522<44221<<<<11<<<16344344433647",
"=<:<<:**;:222225223555585q5q5555555555224<######*$**######&&&=<*",
"<<<<::=;22322555555355q895555534555555554=#*****<*******&&&&&&&*",
"<<1<<=:;;<2455255555558895535544525545554=*******$*$$$*$&**;<=*<",
"1114113<<2;222222,2355985333355555q99952<<<=;;;<*<:::===**;:::**",
"9799qqqweq;:;:2;,;;;;::*:;:<;**<=<00eeeq9e999qqq99959999w889555<",
"9999qewwqq;;;;;;--;-**;*;<2<&&&&#=00qqe9999e99qq99999e99w800598<",
"9999qeqqqq*;-%--%#%#+#$%#**%##%##$e09e9999595555559999748879799=",
"999eqqqqq9;<----%###*$$&%#$$#&%#$$79999995955555957778998899999<",
"<222222;252222223211<:*<;22233336334244<22<222<211:1=3<3>2>>>>>1",
";<;2;22;22222222<::**&**-;;;:222=<<<<;;<;;=*;;*%$$$$*3<====::==:",
"2222222225222225<<<1<<<<;222::2<:<<<<<<<;<;*;;;***&&=43<:;=::;==",
"22222;;2222;;--;<<<<<<:*;;%%;;;;::::<<**;***%*****$*$1446611>>:>",
";;;%%%%%%%%%&%&*<:<<<<<:;;;;;;,,<<<<<2<<<;<<2<<<;:34243334788880",
";;%%%;;%%%%;&%&::223333222222,2,:<<2222<222222224344454474788877",
";%%%%%%%-%-%%%&<13333333;22222,,<<224<244<<<<<222222354434998888",
";2;22;22;2;;-;*<112<<2355522222542244444444224<222222<<3<3337874",
"5252222222222;223,,,,455q5q5555555555q55q5q5955:;;;2:;:::::>====",
"222222;2;2;22222,,,,-455555q5555555555555q95559<*;;*:;*&=&&*&=;>",
";%%%;2%;;2-;;;----,--5ttqqqq5qqtqq5qqq5t5q55555;**&%$*$X.+++$@@@",
"2222%;;;---;2;-;--@@-25tqqq55555555555555555253:;<;;**$$@$$&=&$&",
"qqq5%%%%o%%o%%o%@@@@+@%@,-%@O%@-----&;;-%%--;;*,22<33<33:,:;::,,",
"qqq5%%%%%%%%O%%o@@@@@@++%%-%%@@OO%%%&-%O%%;---*,42<12<<=:==&:&--",
"tqqq-%-%;2;----%@--@&&&&@@o@-;-O %%-*+$&O#-;@=@:<<::<11=1>>:,,,:",
"5555;2;;;;2;--2--::-;;-*---;-;;;--2;:;;;;*;;>-,,2211<<11>>:>;---",
";*****==--%;22;2<2,,<1>1,,733733227837736666>>66666666673636>:==",
"&*$&&*:=;;;;;;;;=<321:>38636343322,,,,>>@66>>>6@>>66>6666633=&@@",
"<<:=::==2;;;<:;2=1331<:36,,111<12223>36,@66@>@6666666>666677>*$&",
"*&=:::>=;;;2:;:;=13123677773674422256>>666666666667666777866>===",
"&&*<=&@&$**$%###$10088878886445477348888888770w88ww0888764487880",
"&***=&&@$$$$%##$&38088788877444333<3378tt8w078088077778888987778",
":::*=@$$*=****=<*2888r8877775232<<:<3,78888r88880000wwww09843378",
"::::=**===::*****,37363337,333333<:,,,,6677,,63767788w8884544443"
};
