/* XPM */
static char *af9763f15c3549a8c75af98d063010e1RjlTeaLCy3mU0xij[] = {
/* columns rows colors chars-per-pixel */
"64 64 245 2 ",
"   c #160900",
".  c #17130B",
"X  c #1C1812",
"o  c #0E0C0A",
"O  c #23170A",
"+  c #231B0C",
"@  c #2A1A06",
"#  c #361B01",
"$  c #231C13",
"%  c #271D17",
"&  c #3C2203",
"*  c #372409",
"=  c #2C2214",
"-  c #25221C",
";  c #2B241B",
":  c #262418",
">  c #332412",
",  c #3B2B14",
"<  c #362A1A",
"1  c #3E321B",
"2  c #2D210D",
"3  c #2C2722",
"4  c #342B26",
"5  c #3B3224",
"6  c #393328",
"7  c #3E3530",
"8  c #411F02",
"9  c #432602",
"0  c #4C2D04",
"q  c #442609",
"w  c #472A08",
"e  c #502E08",
"r  c #4C3103",
"t  c #553607",
"y  c #472D15",
"u  c #4A341B",
"i  c #473317",
"p  c #553A12",
"a  c #5D3D14",
"s  c #563A19",
"d  c #433524",
"f  c #4C3B24",
"g  c #4D3D2D",
"h  c #463726",
"j  c #5A3E23",
"k  c #523D25",
"l  c #443C32",
"z  c #493C33",
"x  c #5D4218",
"c  c #5E450F",
"v  c #69460D",
"b  c #6D4A1C",
"n  c #664618",
"m  c #744715",
"M  c #744915",
"N  c #734A1B",
"B  c #72471B",
"V  c #76551D",
"C  c #70470F",
"Z  c #4E422C",
"A  c #534124",
"S  c #52432B",
"D  c #5B4A2C",
"F  c #5D4426",
"G  c #4D4335",
"H  c #544533",
"J  c #544935",
"K  c #5B4C33",
"L  c #54493A",
"P  c #594C3B",
"I  c #5D513C",
"U  c #644624",
"Y  c #654A22",
"T  c #6B4C24",
"R  c #644B2C",
"E  c #6B4C2A",
"W  c #684627",
"Q  c #734D22",
"!  c #704C28",
"~  c #6B512C",
"^  c #6A5127",
"/  c #73552B",
"(  c #7B5D2A",
")  c #755727",
"_  c #654C34",
"`  c #704F31",
"'  c #6D5333",
"]  c #63533C",
"[  c #6A553B",
"{  c #6C593C",
"}  c #63563C",
"|  c #745633",
" . c #755B3B",
".. c #785B37",
"X. c #7E633C",
"o. c #5D5243",
"O. c #5B4F41",
"+. c #635643",
"@. c #6B5C43",
"#. c #675A49",
"$. c #735D42",
"%. c #705F4A",
"&. c #6C614A",
"*. c #746245",
"=. c #74644C",
"-. c #7A654A",
";. c #7C6A4C",
":. c #7C6544",
">. c #7C6C54",
",. c #756855",
"<. c #7C7254",
"1. c #7D7163",
"2. c #805C1D",
"3. c #9D721E",
"4. c #866524",
"5. c #956F29",
"6. c #9C7424",
"7. c #96722C",
"8. c #9B742B",
"9. c #9B772B",
"0. c #866B33",
"q. c #886A39",
"w. c #9B7532",
"e. c #9D7A34",
"r. c #94743B",
"t. c #9C7A3A",
"y. c #977437",
"u. c #8E7235",
"i. c #A17525",
"p. c #A17A2C",
"a. c #A17629",
"s. c #A27C3C",
"d. c #A27C35",
"f. c #836C4D",
"g. c #856844",
"h. c #8A7248",
"j. c #977847",
"k. c #836E52",
"l. c #8A6E52",
"z. c #857354",
"x. c #8A7354",
"c. c #83725A",
"v. c #8C755B",
"b. c #8D7B5C",
"n. c #87795C",
"m. c #947554",
"M. c #9B7652",
"N. c #9D7B55",
"B. c #927B5B",
"V. c #9B7D5B",
"C. c #927956",
"Z. c #A27D55",
"A. c #A37E5A",
"S. c #A97F57",
"D. c #A17E42",
"F. c #8D7C62",
"G. c #857865",
"H. c #937E61",
"J. c #9B7F63",
"K. c #A47E60",
"L. c #A4813C",
"P. c #9D825B",
"I. c #97815C",
"U. c #99804C",
"Y. c #A48448",
"T. c #A58256",
"R. c #A98357",
"E. c #A5835B",
"W. c #AA855C",
"Q. c #AD895E",
"!. c #A68A5D",
"~. c #B18B5E",
"^. c #B2875C",
"/. c #B8934F",
"(. c #948364",
"). c #9A8364",
"_. c #9B866A",
"`. c #9E8B6B",
"'. c #96866A",
"]. c #9A8B75",
"[. c #96896D",
"{. c #A48462",
"}. c #AB8661",
"|. c #AD8A63",
" X c #A48B6B",
".X c #AC8C6A",
"XX c #A68965",
"oX c #B38D63",
"OX c #B98E63",
"+X c #B38E69",
"@X c #AC9166",
"#X c #B59165",
"$X c #B99266",
"%X c #B5936A",
"&X c #BB956B",
"*X c #BD9A6D",
"=X c #B4996C",
"-X c #A48E73",
";X c #A39174",
":X c #AC9473",
">X c #A9977A",
",X c #B39472",
"<X c #BB9671",
"1X c #B49974",
"2X c #BD9A71",
"3X c #BD9B72",
"4X c #B39B7B",
"5X c #BC9D79",
"6X c #B1977A",
"7X c #BEA278",
"8X c #C0966B",
"9X c #C19B6E",
"0X c #C29D72",
"qX c #C39D73",
"wX c #C39F79",
"eX c #C69C73",
"rX c #C6A175",
"tX c #C5A275",
"yX c #C9A376",
"uX c #C5A37A",
"iX c #CAA479",
"pX c #CAA57B",
"aX c #CCA97B",
"sX c #C4A878",
"dX c #CBA86F",
"fX c #AB9B83",
"gX c #B39D83",
"hX c #B5A182",
"jX c #BBA587",
"kX c #BEAC93",
"lX c #C19F83",
"zX c #CCAA82",
"xX c #C4A887",
"cX c #CBB28E",
"vX c #D5B58B",
"bX c #CAB697",
"nX c #D3BE9C",
"mX c #D5BB99",
"MX c #CBAB8A",
"NX c #CFBBA3",
"BX c #D9C4A7",
"VX c #E3CAA7",
"CX c #E7D0B0",
"ZX c #D8C29D",
"AX c #F6DFC0",
/* pixels */
"&X&X&X&X9X%X8X&XOX}.oX#X*X*X*X*X&X$X#X#XoX$XoXoX$X$X#X#X#X%X#X@X#X*X*X3X9XqX9X9X9XtX*X*X*X$X9XeX0XqXeXtX3X&X3X3X*X*X*X&X&X&X&X<X",
"&X*X%X&X%XoX+X}.^.OX$X&X*X*X*X*X$X$XoXoX~.oXoX+X+X#X&X&X&X&X#X#X#X*XtXtXtX9XtXyX9X3X9XsXyXaXiXiXiXeXiXiXuXuXuXeXtXtXtX9X0XtXeXrX",
"*X&X%X#X+X+X%X|.+X&X*X3X3X*X=X%X+XoX+X&X%X+X+X}.+X+X+X+X#X#X%X#X@X=X9XtXwX3X9X*X*X*XeXeXiXtXtX0XrXqXrXyXiXiXiXaXtXiXrXiXrXiXiXiX",
"*X&X&X&X&X&X<X&X&X$X%X#X%X&X=X%XoX+X+X%X+X+X+X+X+X+X+X+X+X%X&X%X#X=XtXiXpXpXiXeX0XwXiXlXyXiXaXtXrXrXrXiXiXeXaXaXiXtXrXtXtXtXrXiX",
"&X&X0XqX3X3X<X*X%X*X%X%X%X&X<X<X,X<X<X&X<X&X%X|.W.W.}.oXoX+X|.}.{.}.}.|.|.+X}.K.}.}.+X}.W.&X9X8X0X9X9XqX0X0X0XeXdX9X9X*X0X9XtX9X",
"$X$X0XrX0X<X<X<X3X3XwXwXwXwXuX3XtXsXwXwXwXuX0XR.M.Z.A.S.Z.N.N.M.m.m.N.N.M.Z.Z.Z.M.M.M.Z.M.OXOXOXOXoX#X$X&XOX$X$X#X*X$X=X$X$X$X&X",
"$X/.*XrX0X0X3XqX3X3X0X3X0X3X3X*X*X3X3X*X0X3X*X!.W.!.Q.!.}.E.E.E.E.S.W.E.Z.Z.N.M.M.N.A.W.W.%X#X$X$X$X$X*XOX$X+XOX$X$X$X$X$X$X$X$X",
"$X#X&XiXeXuXwXrXtXrXwX0X3X3X*X*X*X*X*X*X3X*X*XW.T.R.!.T.A.T.E.!.E.T.W.W.W.W.A.A.N.Z.W.W.}.OXoX#X#X$X$X$X+X$X#X$X$X$X$X$X$X$X$X=X",
"$XOXOX&X&X&X&X9X&X&X$X$X$X$X$X9X3X*X*X*X*X*XtX#X#X=X$X$X%X%X&X*X*X$X=X~.=X#X$X$X%X+X&X&X#X0X9X9X9X9X9X9X9XqX&X9X9X9X&X#XoX#X+X#X",
"$X$X$X$X$X&X&X+X#X%XOX#X$X=X*XiXuXrX9XtXtXtXeXiXiXtXaXyXtXtXtXrXtXrXtXtXtXtXtXiXtXrX0X0XrXiXqXiXdXtXiXtXrXeXyXqX9X*X#X#X#XoXoXoX",
"&X$X$X&X$X+X$X$X#X#X#XOX~.#X*XiXeXiXaXiXiXrXuXzXaXtXtXsXtXyXdX9XtXdXdXtX*X3X*XtX0XyXzXaXrXtXuXiXtXtXtXsXrXrXiX0X9X9X*X$X%X#X+X|.",
"$X$X$X$XOXoX$XOX$XoX#X$X#X#X*XaXpXiXiXiXaXvXvX.XN.vXzXaXiXdXaXaXaXiXsXtXsXaXsXsXvXoXj.~.zXvXuX7XtXsX3XtXrXrX*X3XtX*X%X#X.X|.#X+X",
"9X*X*X*X9X9X9X#X~.#X#XoX#X#X%X%X+XQ.<XuX,X:.h.n p X.x.sX3X@X$X*X$X&X<X<X<X7XvX@X0.n r T h.:.4XcXsX=X7X3X*X3XwXwX3X3X3X*X3X3X*X<X",
"iXaXyXrXrXrXyX$X~.$X~.+X+X+X.X%X=X=X..x Y c t 0.U.c n n m.5X!.Q.!.T.+X|.uXsX) b t q.Y.0.t a ^ ^ q.uXiXsX3X7X3X3X3X3XuXuXuXuXuXuX",
"tXsXtXtXtX9X9X#X#XoXOX%X+X%X,XV.p c n v V L.d.e.7.L.u.v n p @X:X%X+X+X|.b n b ( L.w.6.w.L.L.2.C b n p V.zXuXxXiXtXuXuX3X3X3X7XuX",
"aXaXiXtXiXaXyX+X%X%X.X!.}.n 0 a ( ) u.L.L.6.6.i.6.6.8.L.0.( s R :X6Xq.w Q ( L.e.8.6.6.6.6.6.p.s.r.) ) n r n *X3X7XxXsXiXrX3X3X3X",
"dXtX0X*XtX9XuXwX{.).:.0 r ( 4.5.e.d.8.8.6.6.6.6.6.a.6.w.Y.u./ K * # a q.L.L.7.9.9.6.6.6.3.3.5.6.8.d.d.5.4.4.t 0 :.:X1X3X3X0X0X0X",
"*X*X9X&X#X&XN.h.U y Y h.r.8.p.6.6.6.i.i.i.8.9.e.e.L.w.V V r & i g O # ^ V V L.e.8.8.6.e.Y.9X/.7.8.6.i.a.w.t.0.U.x   V.3X*X&X$X&X",
"rX0X9X9X3X7Xg.x F ~ T.y.5.a.6.8.6.9.i.6.9.w.u.0.( ^ x & * A I K J A s 9 # & U n u.j.r.T.7X=X$Xt.8.8.6.6.5.s.h.F D U |.qX8XqXeX0X",
"%X*X0X&X<X5X7X7Xq.^ t 4.s.8.8.a.6.9.w.d.r.0.Y h.I.;.D J d > > 2 > > f k K s * & r ^ C.@XkXF.P.Y.7.8.8.d.y.v n E B.xX0X9X9XqX*X3X",
"@XoXoX#X&X+XoXoXtXW.q.n r q.s.a.w.r.h.Y R A Z (.fX>X[.u O = 2 X $ $ < d g g f g s f. XgXgX'. Xj.w.w.j.b t X.m.wX&X&X&X$X8X&X#X#X",
"!.Q.Q.Q.}.OX^.^.R.~.=XP.m.s 0 U.b 9 0 u f G < ,.>X>X>X>X,.h P 5 : : 3 % + + h , v. XgXgXgXfXf.9 r.) # X.P.$XeX&X&XOXOX$XoX$X$X#X",
"~.$X$X#XOX$X~.OX$XoX|.%X<XXX2   y F D A 1 l : Z fXfXjX;X>X>.> P 7 6 ; 4 l d #.$.H..X4XxXjXjX*.q @   ' xX3X&X$XOXOX+XoX%X%X%X+X#X",
"$X*X$X*X&X&X&X$X$X%X%X+X3Xv.@ > i p A Z l Z : X 1.fXkXjX(.D 1 #.P +.> z o.H [ [ H.:X,XgXcX4Xi * y @ s 1X+XOX&X$XoX$X%X&X%X&X+X$X",
"|.oXQ.Q.W.}.|.+X3XuX5XuXI.p x U.V r p u 7 ; + o P ].[.F.} f Z J , g H O.P 1 @.$.(.1X:XI.:XxXn t r.0.r / =X$X*X7X$XoX#X~.&XOXOXOX",
"E.P.Z.W.W.T.A.}.wXuXzXE.v u.e.w.w.U.X.2 ; X . : G 1.=.,.=.} @.Z @ ,.g ,.G.Z c.z.x.B.:X6X4X.Xq.j.7.7.L.V ) sX7XiX*X|.~.$X~.~.8X^.",
"K.K.W.S.Z.Z.V.A.3XzX!.c 7.p.6.6.6.t.{ > : . o X 3 O.,.F.*.} &.H H ,.g G.@.} ;.I.).{.).4XxXl.q.t.9.6.7.D.V V uX3X&X+XoXoXoX~.^.$X",
"A.K.A.Z.Z.T.Z.A.xXE.x u.a.3.i.i.a.e.^ 2 - o o - 3 6 #.,.] +.P #.f =.L c.} n.*.(.x.v. X(.:X:X!.y.L.6.8.7.s.V ) aX*X|.#X~.oX~.~.~.",
"}.+X|.|.W.W.!.<XE.a u.e.6.i.6.i.6.w.^ = X o X 3 X 4 L +.H I %.o.P <.K c.=.b.{ :Xb.C. XXX).XX=XY.3.9.6.9.7.d.V ) 3X1X&XoX$X&X&X&X",
"%X+X|.oXoX#X*XM.a q.e.6.3.6.a.9.6.d./ 2 X o - - ; L &.@.K @.,.J I +.S c.f.;X{ >XH.).4X:X X:X@X=X9.9.6.a.9.9.j.( ..,X%X*X&X$X*X*X",
"oX+X%XoXQ.=XI.Y j.e.6.6.6.6.6.6.3.e.0.* . . 3 - 6 I &.>.n.c.,.K (.;.*.;.z.:Xz.;X-.'.>X).).hX4X=XL.6.8.6.L.L.u.Y & ..uX#X&X*X&X&X",
"&X%X&X+X@X7Xu w b t.t.w.6.9.9.6.9.9.h.1 + X 3 ; G G &.(.F.} d H &.<.;.f.x.7XjXy O @.@.$.F  .b.:XY.7.t.L.C t x  .| {.&X9X&X9X$X*X",
"+X#XOX~.#X@Xm...| p r ( y.w.w.8.9.9.;., $ X X 4 6 = D `.'.> o 6 H } k.B.{.mX;XK O 1 =.).J.`.$.J.XXh...r / / g.%X+X+X+XoXoXOX+X$X",
"#X~.OX$X#X~.oX,X,XC.B./ 0 t u.y.7.U.' < : - % 3 : 5 I.4XkX]   X J } k.I.1XcXD -.d g l.k.`.jX-Xf.x & R x.}..X+XS.A.A.K.S.S.W.W.W.",
"#X#X=X#X~.~.~.~.|.*X7X@X|.XXw # x q.i 6 - - : $ 5 Z z.`.`.].&.+ h =.n.`.xX X^ (.%.>.k.`.XXcXmXgXF # ' :XE.E.}.W.!.W.oXoXoXQ.Q.|.",
"#X#X#X#X#X#X+XOXoXoX#X#X5X:X* u & w g 6 3 X X - 7 P *.b.b.*.(.&.< } z.b.1Xx._ <.{ v.(. XcXZXjX).W & R :X}.}.K.W.!.W.S.oXoX|.Q.Q.",
"*X3X3XtXuX3XwXeXeX0XOX+X%X X& u s a K 5 6 3 X 3 6 5 I n.).x.(.;.d , f.C.g. . .;.x.I.'.xXcXB.H.+.U w [ lX<X9X&X0X&X9X&X9X&X&X&XoX",
"tXtX7XtXuXaXaXiXzXiXoXQ.@XP.w A x e j g 6 : X - 7 I h =.].F.>X(.d * h.E.g.~ (.C.`.:XhXjXjX-Xc.y ' e  .cXwXzXiXrXiXpXiXeXyX0X0X#X",
"wXuXtXiXaXuXuXzXuXeX!.W.#XP.& Q B n n s 5 : X 4 7 ,.#.Z H '.].=.K i B.E.q.{.4XC.I.bXBXgX-X).P H :.0 | xX<XeX9XwX0X0X9X0X9X9X9X#X",
"wXzXuXuXpXuXuXpXzXwXQ.+X|.N.q W Q M N W A + . 7 7 : ,.1.f +.k.%.n.gXl.l.-XVXjX1XmXBXcXMXgXv.L %.g.w | xXwXeXeXeX9XeXyXeXeXyXrX#X",
"&X&X<X7X%X*X<X#X&X3X#X#X#XXXq W B N m Q ~ u O 6 G 5 L ].fX=.<.[.[.NXNXn.CXAXBXmXCXZXjXnX-X%.%.-. .e ` xX&X9X&X0X9X$X&X0X9X&X&X&X",
"@X#X%X%X#X#X#X|.+X&X&X%X<X|.q W T M m N b ~ O 4 &.o.#.J ;XbX].1.].kXBXfXkXBXVXVXmXvXnXgX+.K L %...0 W ,XW.$X#X~.~.~.OXOXW.^.oX$X",
"@X@X|.@X#X|.#X#X+X<X%X+X=X}.w W Q M m m T U , l &.o.I D ;.(.>X;X,.[.jXbXbXBXCXZXhXjX].=.H H h O.| e W .XW.&X#XQ.~./.!.~.oX~.~.W.",
"%X%X=X%X=X#X%X%X0X<X%X&X%X}.9 T B m m m N E , l o.&.<.(.(.z.z.v.F.F.fXkXNXBXhX;.{ } *.I ] g % g  .e W +XW.&X*X&X=X#XoX~.~.~.~.#X",
"#X.X%X|.|.!.oXQ..X|.|.}.}.Z.8 E M M C M B | g 6 L I (.(.B.-X[ _ %.-.;.). Xz.[ i @.=.%.%.5 > $ i ..e W 5X+X&X&X*X&X3X9X0X9X*X&X9X",
"|.|.E.A.!.E.T.T.S.S.S.K.}.V.q E N M M M M T #.z G &.#.J z.B.k.v.$.$.f.-.f. .K +.D K [ O.d % X y ` e E xX3X0X&X&X&X&X9X0XeXyXqXtX",
"}.}.E.E.!.!.{.!.}.K.W.A.XXV.q U Q C M B C Q [ H o.#.&.&.D -.v.v.v.v.[ K ;.*.c.=.] D =.K 4 % # k / e ` gX%X3X*X3X*X*X0XqXqX9X9X*X",
"}.}.}.}.}.}.|.}.}.}.|.}.XXE.9 W M N M M m B W f ] P &.=.] { [ {  .F S f -.>.<.-.*.] ,.g % @ u ` ! e ` uX%X&X&X=X*X*XqXqXtXtXqX9X",
"&X&X<X&X%X%X$X%X%X+X%X%X.X{.# ! Q m B B m N T W d S J =.b.x.{ X.b.z.-.c._ } D H K _ k g d u E Y / e W 3X+X+XoXoX~.oX+X$X%XOX+XoX",
"&X&X&X+X%X#X#X%X#X%X%X%X%X%X..9 a / Q B B m b | s g ] <.n.x.*.(.I.).(.`.=.@.] @.=.,.-.b.l.R E Q w e l.<X+X!.W.+X+X+XOX~.^.}.oX+X",
"oX+X+X|.+X+XQ.|.|.+XoX|.+X+X+X..W # q W ! Q B N E j %.{ %.v.[ J.'.I.'.=.;.).].-X(.H.).H. X$.# i | l.%XW.E.+XW.T.Z.Z.Y.Z.T.W.W.+X",
"W.!.|.}.|.|.|.|.#X!.}.+X.X.X.X<XJ.k.l.y 8 e T n W ` g.l.l.-Xv.$.7X`.C.' l.n.J.k.H.B.`.x.h.B.v.C.<X<XZ.!.oXZ.Z.Z.Z.Z.Z.W.W.W.Z.Z.",
"&X*X3X,X!.W.}.E.A.E.W.!.}.}.A.E.W.}.}.m.m...& q j j s | g.M.Z...' ..T | m.v. Xl.-X).-Xx.h.XX7X%X+X|.%X+X+XoX~.#X~.~.Q.Q.~.oX|.|.",
"iXuXpX3XS.T.E.T.Z.Z.N.T.A.Z.N.M.S.Z.Z.A.}.J.B.J.R q s p e n ` j & ' ` a p j k [ H..XXX{..X|.E.%X&X%X+X&X&X$X$X~.#X~.Q.W.oXW.|.+X",
"iXtXiX3XE.T.!.T.}.|.oXZ.S.}.!.Z.S.}.}.{.K.{.!.E.A.XXm.s U s y q @ u y F s E {.{.K.K..X}.Q.W.oX+X%X#XOX$XoX#XOX#XoXoX~.OXoXoX~.oX",
"iXuXuXsX.X+X}.+X+XoXoX}.}.W.}.S.S.}.K.K.}.{.W.W.A.A.A..X+Xg._ _ _ _ _ J.,XXXA.}.A.S.}.W.~.R.W.OXOXoXoXOX$XoX#XoX$X#XoX~.|.Q.~.|.",
"=X$X#X+X|.oX}.W.W.oXoX~.oXoXoXoX+XOX+X+XoX+X+XoX+X+X%XoX#X&X3X3XeX<XwX<X+X+X&X#X8XOX~.oXoX~.OXOX8X8X8X8X8X8X8X8X8X$X$X&XoXoX^.+X",
"R.W.E.W.}.~.}.oX}.W.W.Q.|.oXoX#X~.+X+X+XOX+X+X$X&X&X8X&X*X&X&X#X%XoX$XOX&X&X&X+X#X#X$X$X$X$X8XOX8X8X~.8X$XOX8X9X8X8X&X8XoX^.W.W.",
"~.~.~.~.|.oXoXoX+XoX~.~.oX~.~.|.oX#X&X&X&X$X$X8X&X&X&X%X$X$X$X&X$X%XOX8XOX8X$X$XOXOXOXoXOXOXOXOXOXOX~.8X8X8X8X8X8X9X9X8X~.T.S.W.",
"~.#XoX+X+X+X+X+XoXoXoXoXOXoX+X$XoX$X&XOXOX~.~.$X&X&X&X&XOX$X&XOXOX%X$X8XOX$X8X~.OXOXOX%X%X$XOXOX8X8X8X8X8X8X9X9XeX9X9X$XOX^.T.W.",
"W.Q.Q.oXoXoXQ.W.~.Q.~.~.}.W.}.~.W.$X9X9X9X9XqXrX0X*X3X*X&X*X9X8X&X&X$X9X8X9X9X8X9X9X&X<X*X7X9X9X8XeXyXeX9XqXqXrX9X*X9X*X&X&X$X&X",
"!.Q.W.~.~.W.T.T.W.W.W.T.W.S.Z.Z.W.&XrXyXrXrXtX*XeXwX*X*X*X*XqX9X0X0X$X8X9X9XdXdXyXyXwX0X*X9XtXrXyXdXyXeXqXtX9XqX9X9X0X0X0X9XtXiX",
"Q.Q.oXQ.W.W.T.R.R.R.W.S.W.W.^.}.W.*XtXtXqXrXtX9X9X0X9X*X*X&X*X%X+X%X#X#X$X=X9XtXtXrXiXdXsX9XeXrXrXtXeXeX0X3X9X7XeXtXtX*X9X*X9X0X",
"oX|.oXoX~.R.R.T.Q.~.OX^.}.^.|.oX|.%X*X*X9X0X*X*X9X&X9X9X*X&X%X%X%X&X~.OX#X#X3XtXtX0XtX9X0X9XeXyXeXeXrXrXaXtXtXrXtX*X*X*X&X&X*X*X"
};
