/* XPM */
static char *mya_1_1676489834[] = {
/* columns rows colors chars-per-pixel */
"64 64 240 2 ",
"   c #0E0C07",
".  c #150B04",
"X  c #14120C",
"o  c #1A140C",
"O  c #1C1508",
"+  c #1A1611",
"@  c #1D1B14",
"#  c #191813",
"$  c #20160B",
"%  c #241A0C",
"&  c #2C1D0C",
"*  c #281703",
"=  c #321D08",
"-  c #231C14",
";  c #2B1D14",
":  c #221E19",
">  c #241913",
",  c #301F17",
"<  c #38250B",
"1  c #2C2314",
"2  c #23211B",
"3  c #2C241C",
"4  c #282519",
"5  c #332314",
"6  c #3D2B14",
"7  c #32241B",
"8  c #342A1C",
"9  c #3B2D1C",
"0  c #382613",
"q  c #3A311D",
"w  c #2A2622",
"e  c #2C2924",
"r  c #272521",
"t  c #342D24",
"y  c #3B2E23",
"u  c #392E28",
"i  c #3D3223",
"p  c #3B332A",
"a  c #383429",
"s  c #3C3632",
"d  c #432A0A",
"f  c #422F13",
"g  c #432E1A",
"h  c #44321D",
"j  c #4B3519",
"k  c #543C1D",
"l  c #55391C",
"z  c #56360D",
"x  c #433423",
"c  c #4B3623",
"v  c #4C3A24",
"b  c #43352B",
"n  c #463A2C",
"m  c #4C3C2A",
"M  c #423927",
"N  c #533D24",
"B  c #533E2A",
"V  c #583F24",
"C  c #473D34",
"Z  c #5D421D",
"A  c #61431E",
"S  c #554124",
"D  c #5D4325",
"F  c #54422B",
"G  c #5A452C",
"H  c #5C492D",
"J  c #4D4132",
"K  c #4F413E",
"L  c #544433",
"P  c #5A4535",
"I  c #5C4A33",
"U  c #5C4C3A",
"Y  c #564939",
"T  c #5F533B",
"R  c #644B2C",
"E  c #684B28",
"W  c #6A522E",
"Q  c #624D33",
"!  c #644E37",
"~  c #645136",
"^  c #6C5335",
"/  c #64533C",
"(  c #6B553B",
")  c #6C593D",
"_  c #745C3C",
"`  c #7B5D3B",
"'  c #755936",
"]  c #76562C",
"[  c #7A613A",
"{  c #584C44",
"}  c #645442",
"|  c #6A5542",
" . c #6D5942",
".. c #6D5C4B",
"X. c #665945",
"o. c #735D43",
"O. c #735D4B",
"+. c #795D40",
"@. c #6B5F53",
"#. c #7C6344",
"$. c #75624B",
"%. c #7C654B",
"&. c #7D694C",
"*. c #776244",
"=. c #6D6253",
"-. c #746453",
";. c #7C6A54",
":. c #7A6755",
">. c #6F604B",
",. c #83633C",
"<. c #826544",
"1. c #856945",
"2. c #8A6B45",
"3. c #846B4C",
"4. c #8B6D4B",
"5. c #836746",
"6. c #8C724B",
"7. c #93744B",
"8. c #9A7A4F",
"9. c #98744B",
"0. c #836D53",
"q. c #8B6E52",
"w. c #836E5C",
"e. c #877254",
"r. c #8C7353",
"t. c #84725A",
"y. c #8B755B",
"u. c #8D7859",
"i. c #937554",
"p. c #997652",
"a. c #947955",
"s. c #9D7B54",
"d. c #937A5B",
"f. c #9B7D5B",
"g. c #927659",
"h. c #906E4B",
"j. c #A77C4E",
"k. c #A37D54",
"l. c #A47F5A",
"z. c #A97E55",
"x. c #8C7663",
"c. c #8D7C64",
"v. c #867765",
"b. c #937C63",
"n. c #9B7E62",
"m. c #917969",
"M. c #9E825D",
"N. c #95815E",
"B. c #A58156",
"V. c #AB8256",
"C. c #A4835C",
"Z. c #AB845B",
"A. c #AD895E",
"S. c #B1875E",
"D. c #B18B5E",
"F. c #B3905F",
"G. c #958264",
"H. c #9B8263",
"J. c #95836B",
"K. c #9C856A",
"L. c #9C896B",
"P. c #9B8A75",
"I. c #8F8167",
"U. c #A48563",
"Y. c #AA8661",
"T. c #A48963",
"R. c #AD8B63",
"E. c #A38569",
"W. c #A48B6B",
"Q. c #AB8D6A",
"!. c #A88768",
"~. c #B38D63",
"^. c #B38E69",
"/. c #B78C64",
"(. c #AD916D",
"). c #AA9168",
"_. c #B49165",
"`. c #B99366",
"'. c #B5936B",
"]. c #BB956B",
"[. c #BD9A6D",
"{. c #BE9867",
"}. c #A58D73",
"|. c #AB8E72",
" X c #A58B75",
".X c #A59175",
"XX c #AC9374",
"oX c #AC947A",
"OX c #AC9879",
"+X c #B49573",
"@X c #BA9771",
"#X c #B59974",
"$X c #BD9B73",
"%X c #B49B7B",
"&X c #BB9C7A",
"*X c #B3957B",
"=X c #BBA17B",
"-X c #BBA176",
";X c #C0966C",
":X c #C29A6E",
">X c #C99F6F",
",X c #C29D73",
"<X c #C19E79",
"1X c #C89F74",
"2X c #C5A175",
"3X c #C9A376",
"4X c #C4A27A",
"5X c #CAA57B",
"6X c #CCA97C",
"7X c #CBAA77",
"8X c #C5A16F",
"9X c #A99883",
"0X c #B39A82",
"qX c #B59C84",
"wX c #BCA384",
"eX c #BCA589",
"rX c #C29F83",
"tX c #C4A582",
"yX c #C5A985",
"uX c #CAAB84",
"iX c #C2A68B",
"pX c #C4AB8C",
"aX c #CBAC8A",
"sX c #C8A681",
"dX c #D3B38C",
"fX c #C5AC92",
"gX c #CDB395",
"hX c #CAB398",
"jX c #D4BA9B",
"kX c #D7B996",
"lX c #D1B090",
"zX c #D8BEA3",
"xX c #DEC19A",
"cX c #E3C59B",
"vX c #DDC5A6",
"bX c #E5C9A6",
"nX c #F1D3AA",
"mX c #EDD3B3",
"MX c #F2D6AF",
"NX c #FDE2B6",
/* pixels */
"[.].[.'.].].+X'.Y.R.^.'.,X$X:X[.].'._.F.A.F.~.D.`.`.`._.'._.)._._.{.,X,X:X,X2X>X>X;X>X1X>X>X>X3X7X>X,X5X1X<X<X1X1X<X[.:X,X:X,X<X",
"@X].'._.~.^.'.Y.^.'.].$X:X:X[.].~.R.R._.A.D.~.~.~.~.'.'.@X].`.)._.[.2X2X2X2X2X,X,X].1X2X2X7X3X2X>X>X6X5X6X6XsX3X5X,X1X>X,X<X2X2X",
"[.`.'.`.^.^.'.^.'.].].].].].`.'.+X^.'.].`._.'.^.^.^.^.^.^.].`.'.).#X<X2X2X<X$X$X$X@X<X<X2X5X4X$X2X2X3X>X2X2X4X2X5X2X3X3X3X3X5X5X",
"[.].].$X].@X,X@X].^.].^.`.].].{.'.R.~.'.`._.~.Z././.^.^./.^.`.`.`.'.$X<X<X<X&X$X&X$X<X@X$XsX4X2X3X1X2X1X6X2X6X7X5X2X2X2X2X2X2X2X",
":X].:X2X:X[.[.].[.[.:X[.[.$X,X,X$X&X:X-X$X2X[.A.k.l.z./.z.z.j.k.p.k.l.l.B.l.k.s.l.s.l.k.C.^.'.'.$X`.[.[.[.'.{.].:X8X:X;X;X;X;X;X",
"].`.;X2X2X:X[.[.,X,X,X2X2X<X<X[.$X8X2X[.$X2X[.Z.l.l.l.z.z.z.j.j.j.p.s.k.s.k.p.9.9.9.p.k.l.~.^.'.Y.).'.`.F.'.[._.F.F.F.{.F.{.F.F.",
"`.~.{.2X2X:X1X1X,X,X,X<X<X$X$X$X[.8X$X[.[.-X#XT.l.Y.l.l.Y.z.z.V.z.V.V.Z.V.z.z.j.j.j.V.V.Z.^.].'.6XdXuX4X_.'._.F.{.`.F.F.{.F.:XF.",
"`._.].2X2X1X1X2X<X<X&X$X@X@X&X<X-X8X-X-X[.-X#X(.|.|.oX|.|.|.Q.^.C.Z.Z.V.S.S.z.k.z.k.A.A.A.`.].].+X=X4XdX'.]._.[.`.{.;X;XF.;XF.;X",
"`.F._.`.`.`.'.`.].'.Q.@X#X+Xf.<.a.U.Q.#XwXwXpX.X0.:.w.%.x.x.v.wXaX$X<X$X&X<X2X1X,X].2X<X,X^.s.Y.|.tXs.&XuX$X[.2X2X:X]././.`.~.~.",
"].`.{.{.`.`.].'.'.].@X(.H.0.Q R r.3.4.y.|.oXc.f , 7 ; 7 ; % 1 Y y.eXwXiX&XtX+XuX-X4X4X@X<XY.Q.&XaX X1.+XuX2X3X-X$X[.@X^.^.].~.D.",
"{._.`.F.`.`.`._.'.Q.!.3.^ B B q.wX=X-XL._ d < < 0 5 1 > 2 > 4 O 1 G ;.~ &.OXOXeX-XwX%XW.g.n.|.iXiXn.q.&X6X4X2X[.,X$X].^.^.^.~.~.",
"{._.`._.`.].'._.@XXX4.V c B B | OXOXL.).OX3.6 * * * 5 $ - - # 4 1 8 1 i h v G G I V #.r. X*XiXrX X XH.tX4X-X{.-X,X,X@X^.^._.~.`.",
"2X:X2X:X2X2X-X'.(.#.j N P L x Y .X.XOXOXW.-XOX) < H :.8 a 8 4 4 4 4 3 1 % & = 6 * Q x.n. X*XrX0XqX0Xn.rX-X[.[.8X:X<X<X<X&X<X$X,X",
"2X7X7X2X2X4X-X'.).#.f 6 x n y 7 .X.X.XeX=XM.L.-Xe.< S Y i 4 4 O 2 t 3 2 $ % O.B j b.g.n.n.iX0X0XfXqX|.lX8X-X7X[.<X<X1X4X5X4X4X2X",
"3X3X2X2X2X2X-X).XX^ 6 9 J b t O @.9XqXqXeX=X#XH.OX3.* M U Y e J e 2 3 { 5 m | ( +.q.n.*XrXrX*XlXiXqXaXaX$X8X7X2X,X1X4X&X&X[.$X8X",
"6X6X5X2X3X6X2X+XW.H F M J p 7 o 8 I.L.qXeXeX%XW.#.&.< h =.b =.=.8 3 y -.P L / o.( 4.n.^.|.@XlXrX*XqXkX@X2X2X2X7X,X5X5X6X2X8X$X-X",
":X,X:X].:X{.].&Xx.g b n C p : o O ..9X9XeXeX%XN.~ < 6 T -.9 { Y 5 c 9 @.M I ;.G W d.Q.+X@X*X+XiXkXaX^.^.'.`.`._._.].].[.].,X$X].",
"-X:X$X{.;X`._.+XO.x C b w : > O . L 9XI.I.G.&.) S H f G X.5 n J P I ..X.h * T *.) d.a.#XrXl.n.f.^.lX&Xl.'.B.R.D.D.D.`.].@X;X,X@X",
"[.$X:X[.:X[.{.-X| 7 u , > @ + X > C :.c.N.&.&.) ~ / U | 6 . 9 ..} h Y L.X.I ;.&.[ 6.i.p.^.rX!.!.f.tXp.p.T.A.Z.Z._.`.{.,X,X,X,X,X",
"'.{.].{.:X[.[.-XO., 7 > - $ o o 7 b @.-.T &.;.&.o.( / :.U % ;.:.h F c.L.*.q y.d.u.N.h.s.!.+X&XuXlX|.] 4.C.R._._._.`.].:X:X,X].,X",
"~.Y.Y./.F.D.A.'.O.7 u : @ X   # - - y } >.J.J.$.F O...O.h q T N.f ) .XF $.N 0.3.i.Q.U.f.f.T.@XtX<X5.' 9.&X'.'._.`.`.`.`.^./.^.].",
"Y./././.~.D.F.(.B , u : #     # w t 3 } ;.;.e.T O.%.} B >.6 I &.h I .Xj e.r._ r.f.4.i.C.C.C.p.&XtXQ.U.B.].'.`.[.].`././.`.`.^.].",
"^.].].].].`._.#XB , w + + X X # t 2 3 1 F ;.) T | L ..S I.S S &.T S OXS g.f.E g.U.f.5.p.C.U.B.s.Q.#X!.).^.[.Q.'.~.~.~.^.`./.~./.",
"].;X].].].`._.#X! , w @ X   X e 2 2 t i F / H  .9 T v.q ;.H Q N.H ~ .Xj n.U.l p.|.!.f.f.U.(.B.C.f.Q.Q.'.+X'.[.'.`.`.].{.;X`.`.`.",
"Y.Y.Y.z.S.V.B.#XO.> 7 o     2 r 2 @ i L >. .o.I B :.P.0 o.^ S N.6 W L.Z T.'.A 1.qXn.+.g.U.^.'._.T.U.(.Q.&X$X4X4X`.Y.D.`.~././._.",
"l.z.z.z.B.B.8.).:.> ; X   X r e # t s X.) ^ ^ 0.F / .X6 T *.S [ S ~ u.[ 6.-X,.W aXb.b.!.qXtXQ.C.U.).&XQ.@XsX$X5X]._.~._.~.D.~./.",
"l.z.l.z.B.B.B.A.m.7 : X   + e 2 2 a J / ~ &.r.&.-.:.I.q $.G.[ u._ ) N.6.7.-X6.[ gXW..X.XW.aX+XU.C.OX=XQ.+XuX<X$X@X~.~.~.D.D.D.F.",
"l.l.k.l.8.B.B.L.9Xu 4 > + # e # r J J / 3.1.N.L.I.I.;.L T ;.y.3.&.*.6.[ M.'.C.#X^ = .  .r.^ h.] a.Q.&X+X(.'.4XuX@X^.^.~.~.D./.`.",
"Q.~.F.A.A.A.F.(.9Xb : : @ : e : s a n ~ [ 3.(.&.I.% % i Y /  .q.N.) 8.2.B.-XxX).< & m } 0._ [ A d z ^ 2.'.@X+X@X:X@X].].{.{.].{.",
"Q.'._.R.~.~._.#Xm.b ; : > : r : a C 8 = d [ H.e.;.. * % q X.F 0.&.[ B.N.A.cX).OXf . 8 F B 0.T.C.C.H.f.W H.4X^.+X@X].].].].;X,X].",
"`.'._.'.`.`.[.R.-.b w > @ @ : : s 4 1 G &.(.wX=XI.. . $ 1 L P B e.6.M.B.).NX[ N.J.1 . 7 c L.a.M.W.eX%X` ` f.^.<X@X^.].].].].{.].",
"].'.R.`.`.Q.).N.B b t > : : @ : r 2 & F d.).-XgXL./ . $ 1 8 :.I e.u.T.F.-XcXW < e.X.x m t.y.<.6.C.=X#X#X4.[ @X@X@X@X].@X;X@X:X{.",
"F.A.F.D.^.R.@X+.7 b p 2 r # : : : s y L u.M.M.T.*Xm.Q & . 0 w.| 6.8.A.-X6X=XW R _ o.O.0.+.` a.C.).yXaXpXpXg.k.Y.z.Y.Z.Y.!./.Y./.",
"F.F.`._.^.R.oX( 0 b 2 w r 2 # @ r p J Y &.L.H.p.i.!.0Xy.V * C } N.6.s.6X$XM.l M.iX5.W 3.g.U.'.).'.xXvXxXeXE.U.z.z.Z.Y.z.Y.Y.V.S.",
"F.).`._.`.~.Q.) g C w e r @ # @ u y X.T ~ &.d.).i.E ^ E.Q g B | ,.7.7._.R.s.A ' #.V <.a.i.f.M.#XbXcXeXwXn.3.k.Y.z./.Y.Y.Y.~.S./.",
"`.{.].^.].].#Xd.B m s a r @ @ @ t p q L >. .e.3.4.#.4.|.! c g l ] B.8.7.6.,.2.A i.5.<.M.U.p.'.xX6XM.u.G.0.R 2.^.Z.Y./.!.~.~.S.S.",
"-X-X[.8X2X2XyX%X .0 i p s : + > q y n i L $.J.L.#Xu.).).+.B = = ` 8.9.6.] z ,.,.,.M.C.d.Q.4XuXdX%XH.G.y.( j h.sX1X1X,X<X<X<X{.`.",
"8X2X-X7X6X2XuXyXE.N 8 y u w X > 9 q J J i T b.L.N.#.=X).3.| , * 4.7.M.B.] E 9.B.7.M.C.=X#XQ.yXyXtXXXn.$.d d 5.1X1X1X1X5X2X2X;X~.",
"2X-X8X8X7X2X4XwXyXu.B 9 t :   : 8 q -.v.U F S T u..XOXL.g.( = j h.R.A.8.] B.{.{.M.7.T.6XdXdXuX4X+X}.b.o.B ^ Q.sX,X;X,X,X<X>X>XD.",
"2X7X2X7X6X7X2X6XtXiX%.q 7 > + : J i i =.=.T J S H .XG.) ^ ! O.l <.!.7.,.[ [.7XM.9.B.<XkXcXdX+XQ.E.G.:.g g %.rX1X1X1X2X5X,X2X2X{.",
"'.{.{.{.'.`.`.).(.&XW.c 7 $ . 3 { J ; 7 $.P.:.c g | y.O.5.| 0XqX3.4.l.h.yXnXxXD.{.dXxXxXcXuXkXaXqXx.:.-.| K.&X@X]./.{.{.].`.`.`.",
"R.).)._._._._.F.'.'.oX$.6 $ + 3 K s 7 9 F I.J.c.w.} w.m.x.b.oXjXjXn.] rXNXnXcXdXkXxXcXnXyXyXyXaX*Xw.U x U E.&XR./.S.D.D.Q.D.D.F.",
"_.R._._._.F._._.@X'.*XoX:.b > o C { b x S >.9XhXP.O.w.m. XE. XhXzXzXq.bXMXNXnXxXxXbXbXkXuXpXkXgX3.| v.w.-.d.@X^.S.S.S.S.Z.Z.S.D.",
").].'.'.'._._.'.^.@X^.0X XL > > C @.} -.;.I ) .XqXzXqXm.x.0XfXhXbXvX|.|.kXbXbXxXxXmXjXjXgXgXpXn.o.B c C O.K.&X].;X;X`._.`._.F.F.",
"'.'.Q.R.).R.A.A.S.^.l.!.}.L % 1 n =.} F T Q f &.eXfXOXb.y.o.J.0XgXiX.X#XeXxXjXmXmXgXqXgXzXfXW.j B | } x h e.&X$X;X;X[.[.[.$X,X:X",
"R.C.B.C.B.C.B.B.z.Y.Y.E.K.L q 8 Y T } } &.) ^ r._ 6.K.gXL.b.;.t..XfXvXhXvXvXmXbXjX.XfXoX X<.#.0.B b x L U b.=X'.{.;X:X2X4X2X2X8X",
"C.C.C.C.Y.Y.A.A.z.l.^.!.0.v i M U / X.%.x.q.H.a.6.1.6.U.b.G.b.oX0XeXfXjXvXmXvXoXK.o.( R o.%.D ! Q } 7 O g e.%X[.;X:X:X,X<X2X,X{.",
"F.R.R.Y.!.R.Y.~./.A.Z.W.d.! 6 1 J T F $.$..XW.T.f.(.2.Z ^ 0.w.y.d.d.%XeXeXW.J.%.c V O.( o.3.o.N x b y * & H Q.[.{.;X[.,X,X,X<X[.",
"{.{.[.'.@X'.].].].^.].Q.XX%.x m x L U } J..Xr.#.M.T.` Z R 3.W ` &.[ d.W.3.#._ S l N 0.%.( %.%.P w t ; & * ^ Q.^.Y.~./.`.^.~.~.A.",
"F.`.`._.@X^.^.~.~._.'._.@XK.| P q n -./ ;.Q S 3.H.M.6.' U.a.V [ 1.r.1.d.1._ V D ( R ( Q G ! O.c u + - % < _ Q.U.~.~./.Y.S.Y.Q.`.",
"F.D.R.Y.'.~.~.~.D._.R.Y.|.|.O.Q L J X.>./ H #.d.^ i.5.s.r.5.#.3.1._ R [ H.#.) q.o.R N B | Q | m p - % * = 5.Q.C.k.z.z.z.B.V.Z.A.",
"A.A.F.R.Y.T.~.Y.D.D.A.Q.R.!.O.B J ..Y >.>.#.( k ^ <.d.3.4.i.d.q.&.S ^ #.*.^ d.&.o.o.( v %.%.Q g 1 % % & N d.C.s.p.k.k.z.Z.B.B.s.",
"8X[.[.'.Y.C.C.Z.k.k.z.Y.Y.E.O.l F ..-.I $.e._ j ^ #.*.R r.3.D W ^ d k &.3.) *.y.0.) %.! 0.%.B x & % & N }.(.'.^.~./.D.~.~.~.~._.",
"7X7X7X&XC.l.C.B.k.z.k.l.l.!.q.V M J I J I T y.0.[ ^ R W E ^ ^ S k W H j e.y.*.0.) Q 0.Q R  .B 0 % 5 5 | &X'.~.^./.S.S.S.A.A.R.Y.",
"4X2X4X2XY.C.Z.B.Y./.Y.z.l.!.!.5.c F x F / T %.e.b.r.3.Q r.N.d.d.e.0.J.~ Q Q H S ! N ( ! B V V h g g Q E.+X#X~.S././.~.^.~._.R.~.",
"2X2X4X4XQ.R.Q.A.S.~.]./.!.l.Q.n.o.h h H Q &.c.u.u.d.*.3.d.G.L.H.J.G..X&.! ( j V H ( R ( | R 3.w.3.c ` @XQ.^.`.`.;X/.D.~.~.Y.A.A.",
"'._._.).R.R.R.Y.D.S./.R./.^.^.|.L.Q f S H &._ 6.d.4.R r.T.d.d.N.d.y.d.e.q.u.y.r.0.d.0.d.d.b.n.E.g.^ r.&X].{.;X;X;X;X;X/././.Y.~.",
"A.A.C.C.A.R.R.Y.Z.A.z././.R.^.^.oX*.S D ^ 1.R _ G.r.^ 1.E.H.H.d.(.L.*.*.&.K.E.oXW.XXn.n.n.b.g.n.E.4.f.@X].`.;X;X;X;X;X;X/.R.Z.B.",
"~.A.A.A.R.R.~.~.^.~./.R.~.~.Y.~.Q.(.r.W *.T.#.E E.N.<.E 4.XX%Xd.u.d.S 3.d.1.d.d.r.d.3.4.g.n.b.g.!.h.C.].`.].;X;X;X>X;X;X~.Z.k.k.",
"^._._._._._.).R././.^././.`.^.'.).'.#XQ.Q.C.5.f.!.'.T.' ' M.'.U.d.[ W 7.d.4.Q.N.` f.U.H.!.Q.p.` h.p.~.$X:X:X;X;X;X;X;X;X^.D.A.Y.",
"Z.A.D.~.A.A.A.A.Y./.Y./.A.Y.A.Z.A.].-X'.4X4X'.C.C.T.'.T.7.B.U.T.C.#X,.[ M.1.Q.R.1.U.R.U.n.!.p.,.h.Y.<X<X,X:X:X3X;X;X;X;X{.].].,X",
"V.S.Z.A.A.Z.C.A.z.Y.z.Y.z.k.k.k.V.`.6X2X<X<X<X<X4X&X].].'.-X4X4X4X-X#XC.T.Q.'.T.2.f.Y.!.!.!.p.p.^.$X5X1X,X1X:X>X;X;X1X1X,X,X1X2X",
"S.D.D.~.S.Z.l.z.l.z.Z.Z.Z.V.S.D.D.{.,X2X1X4X,X<X@X,X4X<X[.].]._._._.A.#X[.#X4X4X<X&X$X@X].@X^.&XsX4X,X].,X3X1X1X1X1X,X,X,X,X:X,X",
"S.S.D.D.Y.S.Y.z.^.+X/.~.A.D.A.D.V.{.{.{.:X1X].@X,X:X@X,X2X`.$X[.).[.'.R._.'.'.2X<X4X<X<X<XtX$XsX<X<X5X2X1X1X1X1X1X1X;X;X].].{.[."
};
