/* XPM */
static char *_d05a15ad0cd4fb5a77e4db8a169c059zIJokdcpJOEphKkm[] = {
/* columns rows colors chars-per-pixel */
"64 64 240 2 ",
"   c #151515",
".  c #1C1B1B",
"X  c #1E1915",
"o  c #281E0E",
"O  c #241C14",
"+  c #2B1E13",
"@  c #241B19",
"#  c #2D2214",
"$  c #26221D",
"%  c #2B241D",
"&  c #2A261B",
"*  c #322314",
"=  c #342A1E",
"-  c #35281A",
";  c #38260E",
":  c #1D1C21",
">  c #1F2320",
",  c #242424",
"<  c #2A2322",
"1  c #2C2925",
"2  c #2C2C2C",
"3  c #262528",
"4  c #312C25",
"5  c #332D2B",
"6  c #3A2E22",
"7  c #2E302E",
"8  c #32312E",
"9  c #3C3525",
"0  c #2D2D31",
"q  c #2F3233",
"w  c #333333",
"e  c #393737",
"r  c #342F35",
"t  c #412916",
"y  c #582E16",
"u  c #443523",
"i  c #463929",
"p  c #443D36",
"a  c #573B2D",
"s  c #55422D",
"d  c #564636",
"f  c #554935",
"g  c #614C35",
"h  c #68543C",
"j  c #575657",
"k  c #6C5C46",
"l  c #6A5D4D",
"z  c #776750",
"x  c #7A7A7B",
"c  c #B9683A",
"v  c #CF6B3C",
"b  c #9A754E",
"n  c #97744C",
"m  c #836D55",
"M  c #8B7559",
"N  c #9E7A53",
"B  c #9D7750",
"V  c #92674B",
"C  c #BC6D48",
"Z  c #BE7A4D",
"A  c #A27D55",
"S  c #AA7C53",
"D  c #A47E59",
"F  c #A77355",
"G  c #B77C56",
"H  c #A7784A",
"J  c #967C63",
"K  c #827E7F",
"L  c #C46B41",
"P  c #CC6F44",
"I  c #D76F43",
"U  c #CB7548",
"Y  c #DD7445",
"T  c #D47B4C",
"R  c #D87649",
"E  c #C57A56",
"W  c #DF7D56",
"Q  c #E4794B",
"!  c #E27748",
"~  c #E77B51",
"^  c #A68156",
"/  c #AA8256",
"(  c #A6825A",
")  c #AA855C",
"_  c #AD895E",
"`  c #AD8957",
"'  c #B18B5E",
"]  c #B7865A",
"[  c #B3935E",
"{  c #958269",
"}  c #9A846B",
"|  c #9B8466",
" . c #A68561",
".. c #AB8661",
"X. c #AE8B62",
"o. c #AD8D6D",
"O. c #A38C6D",
"+. c #B38D63",
"@. c #B98E64",
"#. c #B48E69",
"$. c #B58B65",
"%. c #AE9165",
"&. c #AD936B",
"*. c #B59165",
"=. c #B99266",
"-. c #B59369",
";. c #BB956A",
":. c #BE996D",
">. c #BD996D",
",. c #B99966",
"<. c #A48D72",
"1. c #AC9273",
"2. c #A89176",
"3. c #B39672",
"4. c #BC9770",
"5. c #B59973",
"6. c #BE9B71",
"7. c #BF9D71",
"8. c #BF9D74",
"9. c #BD9C72",
"0. c #B79B7B",
"q. c #BB9C79",
"w. c #BEA175",
"e. c #BDA27B",
"r. c #C48C5E",
"t. c #C88458",
"y. c #D98757",
"u. c #D7905F",
"i. c #EA814C",
"p. c #E48353",
"a. c #EC8354",
"s. c #EC8957",
"d. c #E48C5C",
"f. c #EB8C5B",
"g. c #E98558",
"h. c #F18556",
"j. c #F28B55",
"k. c #F48A5B",
"l. c #F28759",
"z. c #E9925E",
"x. c #F1925A",
"c. c #C88866",
"v. c #D48966",
"b. c #C0976B",
"n. c #C09B6F",
"m. c #C19B6E",
"M. c #C89768",
"N. c #DB936A",
"B. c #D59568",
"V. c #C39E72",
"C. c #C19D72",
"Z. c #C49F73",
"A. c #C29E75",
"S. c #C29D72",
"D. c #CB9D73",
"F. c #C59F78",
"G. c #CD9274",
"H. c #DC9B74",
"J. c #D69A77",
"K. c #E58A62",
"L. c #E59163",
"P. c #EB9465",
"I. c #EC9A6C",
"U. c #E99869",
"Y. c #F4986A",
"T. c #E69B70",
"R. c #F69E72",
"E. c #C3A075",
"W. c #C6A175",
"Q. c #C6A175",
"!. c #C4A175",
"~. c #C8A377",
"^. c #C8A176",
"/. c #C9A376",
"(. c #C5A379",
"). c #C9A478",
"_. c #CAA679",
"`. c #C9A57A",
"'. c #CBA97C",
"]. c #C5AA7B",
"[. c #D8A278",
"{. c #F4A26E",
"}. c #E7A279",
"|. c #E9A579",
" X c #F4A374",
".X c #FAA574",
"XX c #FBA77A",
"oX c #FDAC7C",
"OX c #F5A878",
"+X c #817F82",
"@X c #8A8889",
"#X c #949193",
"$X c #B49F80",
"%X c #9FA09B",
"&X c #A6A5A7",
"*X c #B7B6B4",
"=X c #CC9A81",
"-X c #C6A986",
";X c #D6A38A",
":X c #D6B396",
">X c #D4AC98",
",X c #FEAD82",
"<X c #F7AB84",
"1X c #FEB485",
"2X c #FFB48B",
"3X c #FAB68A",
"4X c #E6B79C",
"5X c #FBBC99",
"6X c #E2A785",
"7X c #C7B7A7",
"8X c #D7BCA5",
"9X c #E4BAA6",
"0X c #F9C7A8",
"qX c #EDC8B5",
"wX c #F4CBB7",
"eX c #D1C4B1",
"rX c #C8C8C8",
"tX c #DBDBD6",
"yX c #D1D1CF",
"uX c #FAD4C3",
"iX c #E7D4C3",
"pX c #FCE5D7",
"aX c #E1DFE0",
"sX c #E2E3E4",
"dX c #E7E9E6",
"fX c #ECECEB",
"gX c #E8E8E8",
"hX c #FFEBE2",
"jX c #F2EEEF",
"kX c #ECF0EE",
"lX c #FFF6EB",
"zX c #FFFAED",
"xX c #FFF2E7",
"cX c #F4F4F3",
"vX c #F6F9F6",
"bX c #FEFBF4",
"nX c #F6F6F9",
"mX c #FEFEFD",
"MX c #FBF5F7",
"NX c #EFF2F2",
/* pixels */
"*.=.=.=.>.@.;.>.@.@.#.*.;.>.4.>.=.=.=.=.=.=.*.=.,.=.=.*.,.*.*.=.*.=.6.:.:.:.m.:.m.m.>.m.:.>.=.S.:.C.m.=.=.=.=.;.*.=.,.*.*.*.*.*.",
">.>.=.=.=.=.#.#._ +.-.4.6.6.9.4.>.=.*.' _ +.+.+.+.#.*.*.-.=.=.*.=.S.W.W.F.W.W.S.V.F.S.F.^.V.W._._.W.^.'./.^.].^.W.F.!.9.:.w.w.!.",
"6.>.;.*.#.+.+.+.#.;.4.9.9.6.4.-.#.+.#.#.*.*.+.+.#.+.;.=.-.=.-.*.*.-.E.E.S.C.S.S.:.>.F.F._.^.`.F.W.W.^._._._.^.].W.W.W.W.~.~././.",
">.;.-.-.-.-.;.-.;.=.4.-.-.;.5.-.#.+.#.=.*.+.#.#.#.#.+.+.o.*.-.-.-.;.A.`.^.!.F.A.C.C.F.`.^.'.^.A.W.W._._.^.^._._._.^.W./.~.~._./.",
"4.>.C.C.6.6.9.4.-.-.-.*.-.5.4.;.;.#.;.-.-.*.*.....X.&.*.3.-.&.X. .X.*.-.;.4.-.+.-.-.;.;.#.F.F.C.F.S.S.W.W.S.W._.^.V.V.F.!.S.W.W.",
"n.4.S.F.C.>.;.;.9.q.8.9.8.E.F.8.A.(.F.F.F.(.9.( N N N ( D D N N n N N N N N N n b b b B b +.#.#.=.*.;.=.=.=.=.=.>.>.>.=.,.*.=.=.",
"@.+.b.V.C.A.6.6.9.9.A.A.A.9.9.4.6.9.6.6.q.8.w.)  .( ..) ( ( ( ( ( N ( ( D N N N F B D ( S #.*.;.*.*.=.,.*.=.=.*.@.=.=.=.@.;.=.=.",
"#.+.m.^.^.^.F.A.E.E.E.9.S.9.9.9.9.4.4.6.9.9.9._ ..) ..( ( ( ( ( ) ( ( ..( ( ( N b A ( ) ..;.#.*.*.=.=.=.,.#.*.=.@.=.=.#.;.;.>.>.",
"=.' =.m.:.:.:.!.9.>.:.:.=.,.;.>.V.:.7.:.>.C.m.[ %.*.%.*.*.+.*.+.-.*.X.X.*.+.X....._ #.*.+.>.>.m.:.:.m.,.:.:.:.:.m.m.*.*.*.*.*.*.",
"b.=.*.=.+.=.=.*.-.*.*.*.=.=.m.W.m.m.!.7.w.C.W./.!.!.~.!.w.A.9.].].E.E.E.E.E.]._.W.W.W.W.F.].^.^.W.W././.W.W.!.!.S.S.*.*.=.+.+.*.",
"b.=.=.,.=.=.=.=.,.+.+.*.$.$.>.`._._././.].W.W.].!.!.~.~.W.~.~.!.9.E.E.E.!.9.m.C.W.V.W.F.!.W.~././././.Q.Q.W.!.m.:.:.,.*.*.*.' X.",
"=.=.=.=.=.*.[ =.,.*.=.=.=.@.m.`./._.'.'.'.'.'.].'.'._._.].'.'.]._.'._.]._._.^.]._._._._./._./././.Q.W.V.W.W.!.:.S.S.-.*.*.+.+.*.",
"m.m.,.=.:.:.:.*.' =.=.=.*.=.=.:.,.=.:.:.m.W.W.m.>.,.:.V.9.,.:.E.w.!.!.>.!.].~.W.^./.^././.W.W.!.V.V.V.V.S.!.:.:.:.:.>.-.-.-.>.-.",
"/._././.W.~./.=.' +.+.*.+.+.+.' ' / ( ) _ ' ' ) ^ ^ _ [ +._ _ _ ^ / _ X.:./.~.W.S.W.S.S.W.S.S.m.m.m.m.V.S.E.!.:.>.9.].E.e.].`.`.",
"!.~.Q.Q.W.S.m.*.=.@.+._ +.*.*.*.#.+.+.*.+.*.=.*.+.*.*.*.*.*.+.+.*.+.' +.=._.W.W.W.(.V.F.W.S.9.m.V.V.m.V.E.!.W.W.!.w.~.!.9.w.w.].",
"'._.].~././.W.*.+.+.*.+.+.+.*.X.*.*.+.' +.*.+.,.=.=.:.=.-.-.=.=.,.*.=.=.9.~.W./.^._.W.W.W.W.W.W.Q.Q.V.V.W.`.`.(.].].].Q.!.w.5.9.",
"~._.!.S.W.W.S.,.=.=.$.#.=.=.;.=.=.-.=.=.-.,.@.*.=.[ _ X.%.%.[ ) _ +.*.+.+.,.=.b.4.4.;.b.5.>.=.=.,.,.>.>.m.C.A.4.6.6.V.V.m.W.:.!.",
":.:.6.,.*.*.=.;.>.>.>.>.>.>.m.C.:.!.A.S.!.S.D.m.m.=.^ ( ( D S H S S S S / ` ] ] ) $.D ..) _ ' ' _ [ ] $.$...+.o.+.*.,.=.=.m.5.,.",
"V.E.S.>.:.>.=.;.=.=.,.,.b.>.=.=.:.=.>.>.>.V.C.b.D.,.^ ^ S G G t.y.E B.[.N.u.t.] G G $.$.*.*.' ' &.%._ _ ' _ ..) ' [ m.m.C.9.9.w.",
",.,.:.:.:.6.>.C.=.>.:.:.:.>.b.C.:.>.>.;.>.:.V.M.M.r.] ] J.}.N.z.y.y.3XOXz.z.U U.|.B.r.] ] ` ] ) _ _ / / ) _ ..$.*.*.m.m.C.A.9.V.",
"+.+.-.*.*.-.*.>.@.#.+.*.*.+.+.*.*.@.;.;.,.,.=.r.r.u.d.T oXU.f.g.v oXOXP.s.a.T 1X{.d.T |.U.u.r.c.$.] ` ` ' [ @.#.*.=.=.>.;.;.;.;.",
"_ _ _ _ _ _ _ ] ' ] ' +.+._ _ ) ) ) ..$.[ ] ] B.u.z.p.Q .Xd.l.Y z.oX.Xz.k.Y L.1Xz.s.R R.y.t.t.] b.=.=.*.[ =.;.;.=.=.=.@.#.@.@.@.",
"' #.-.*.*.#.+.+.#.+.+.$.#.#.%.%.' #.@.@.t.t.T.oXd.j.Q l.oXs.j.Y oXOX.Xx.h.I 2X1Xd.I v p.v c c t.b.,.=.=.,.b.=.;.=.+.=.[ *.@.$.;.",
"=.b.;.;.;.;.>.=.=.*.#.-.;.#.*.' =.@.[ r.u.y.I..Xa.k.! l.oXd.i.Q ,XXX Xz.a.W <XJ.Z C C v.[.;X5X4XX.&.*.,.=.@.b.@.=.@.=.,.=.;.$.#.",
"$.$.+.X.$.$...#.A.F.9.E.7.w.w.m.D.M.[.}.s.Y I.XXd.k.Q k.oXL.a.Q 2X<XOXg.R L G.=X;X4XuXhXzXzXbXhXqX8X9.:.=.b.n.D.;.' [ *.=.*.,.%.",
"D ) D ( S D D ..F.(.].w.w.!.W.^.B.B.<XU.j.Y I.,XK.h.~ ~ 1XP.~ Q 2XT.N.U C c.9XpXlXbXvXmXmXmXmXbXvXpX$X]./.D.D.^.>.' ' +.*.' *.X.",
"D D D D D D A ( 9.`.w.].Q.W.M.H.d.T oXU.h.! I.1Xz.l.l.! 1XOXg.Y T.v.$.;XuXlXMXmXmXmXmXmXmXmXcXmXbX7Xe.]./.M.D.6.;.+.#.=.' ' +.*.",
"( ( S D D A A D E.W.].]./.[.6X|.a.! oXP.s.Q L.2X{.l.l.I  X1Xd.c t.`.9XxXMXmXMXmXmXmXmXmXcXmXcXbXbXeX-X-XW._._._.;.+.[ ] @.' +._ ",
"_ _ ) ) ( ( _ $.6.5.:.b.r.H.3X Xh.! oXP.j.i.y.2XOXI.s.p.T T.v.c.:XpXMXmXMXcXfXsXmXmXmXvXaXdXdXvXbXl z $X-Xw.:.w.m.b.=.@.=.;.;.;.",
"*.*.+.#.o.*.#.-._ _ _ ] t.y.3XI.h.Y OX{.a.s.I 2X3XOXP.P C E ;XuXbXmXbXmXMXgXkXNXcXmXmXnXcXmXkXmXmXp > s z &.5.,.;.=.;.m.m.b.4.4.",
"*.-.*.*.*.-.*.+.*.*.[ H.K.W ,X Xj.Y I.,Xs.k.Y Y.0X|.y.t.c.9XhXbXmXmXmXmXmXvXmXmXmXmXmXmXmXmXmXmX&X3 7 5 5 p z <.3.5.-.,.;.=.=.,.",
"-.-.-.-.&.3.3.3.>._ |.1Xl.~ oX Xx.Y d.2XP.s.a.R oXH.c.J.uXMXmXmXmXnXmXmXmXmXmXmXnXmXmXmXmXmXvX@X2 2 q w w w 1 6 k M <.e.q.9.,.,.",
"#.#.-.-.<.<.J M V F T.,Xl.Y XX<XP.g.R XX.Xz.g.v U J.>XpXbXmXmXmXnXgXmXmXmXmXmXfXcXmXmXmXmXmXrX  2 w w w e w 8 8 9 & i g z 5.-.,.",
"$.-.| d s i i * y G H.2Xk.Y L.,XI.f.R Y.1XP.P U E 4XlXmXnXmXmXmXsXgXmXmXmXmXnXdXmXmXmXmXmX@Xe 2 7 w w 5 w w e e w w 4 # ; |  .) ",
"' 4.k + & 4 4 # y c.v.5XY.~ T 2X.Xf.h.! 1XL.t.c.qXlXbXbXmXmXmXkXfXmXmXmXmXmXfXsXcXmXyXj j . , q q q w q 8 w e 2 8 1 # o g o.X.+.",
"[ w.k & 4 r 5 < t F G <XR.L.T Y.1Xz.k.Q P N.G.qXbXvXmXmXmXmXvXdXmXmXmXmXmXnXmXmXnX+Xe   > 7 q 7 q q q w w w w 4 O o s M 1.X._ ] ",
",.e.} 9 5 0 2 1 @ a V H.N.U L P  XL.R I L E wXbXMXMXaXcXmXmXMXcXmXmXmXmXmXMX*XyX@X  > q 7 2 w 7 q w q q w 3 @ * g | q.9.>.>.4.X.",
"~.w.-Xf < r 2 1 3 @ a 4X;X=Xv.v.J.E L E E 9XbXbXjXfXsXsXbXmXmXmXmXmXmXmXmX%X$ > . 2 8 2 2 w q 8 w e 2 , $ 6 l 2.-X-X_.S.^.S.9.&.",
"E.9.-X| r r 3 5 0 < < 7XpXpXqXqX9X9X9X>X8XlXvXmXmXmXnXgXkXmXmXmXnXsXj j @Xw > 2 2 2 2 8 7 w w w & # # s M 0.-XF.F.9.A.A.C.m.m.*.",
"e.'.D.:Xg @ r 2 0 0 : 5 j @XmXbXbXMXzXMXbXbXkXmXmXmXmXmXmXmXdXNX%X3 . > : 0 q 2 8 7 8 8 8 & @ O i k <.-X-XF.D.C.D.(.E.F.^.V.^.=.",
"5.>.:.9.<.s $ q q 2 < < . . *XtXmXmXmXgXaXaXgXmXmXmXmXbXrXx q e   3 0 q q 0 q r q 5 < + o t k J 0.q.9.;.=.b.b.m.>.4.-.>.9.m.=.b.",
"&.&.*.-.-.2.f $ 1 4 1 , , 3 $ 1 rX&XsXmXmXNXcXtX@X+X&Xx : : $ > q 2 2 8 5 1 < < @ - u k J 2.3.-.....( ' ' =.' ' ' +.*.*._ _ ] @.",
"%.X.%.[ X.&.2.h - 1 1 5 3 3 3 , ,   e @X&X#Xj 3 @ : . , r q r 2 7 1 $ O O * i g m J o.o.%. . ...$...( / ] :.>.+._ _ _ _ ' [ ' ' ",
"-.,.&.5.-.%.-.0.} k i < 1 4 < 1 $ 1 < @ X X $ 1 4 5 5 1 @ @ O O o = i k m | 1.5.;.#.$.D _ X.X._ ( ) ) / _ =.=.-.:.-.[ ' ' _ _ *.",
"*.X.+.X.%.X.X. .o.1.J m h u * = - 4 - + # * # # * - 6 9 s h k M | &.3.0.3.&.%.X...+.X.) _ _ _ _ +...%.*.*.=.,.>.=.>.m.S.S.9.6.9.",
"_ _ (  .(  .(  .D ( #.o.&.O.J { } } } J { { { { } } &.1.3.3.e.3.&.*.*.*.*.*.*.*.*.=.>.=.,.,.5.>.-.,.-.>.>.>.>.>.:.>.m.V.W.E.8.8.",
"_  . . . .) _ D ) ( (  .( (  .&.3.3.4.A.q.q.9.9.5.&.-.-.&.%.#.#.,.*.*.-.>.>.-.-.;.-.#.-.-.-.*.-.,.5.>.-.>.9.4.:.>.m.m.D.V.S.A.9.",
"#... .X...+...$._ X.....) ( _ *.-.=.=.=.;.;.-.-.,.%.*.%.,.-.-.4.-.-.-.;.>.-.;.6.>.;.=.;.-.-.-.-.*.%.,.>.5.-.-.=.>.:.V.V.V.V.S.m.",
"-.-.4.-.-.-.=.-.*.-.-.*.X.*.#.+.;.-.#.@.-.-.,.A.9.:.7.7.9.9.9.8.S.m.>.:.>.S.A.6.S.4.w.>.9.>.>.%.X.*.*.*.*.+.+.+.X.+.+.=.=.$.] +.",
";.-.-.-.-.,.*.-.*.-.-.-.-.=.-.=.+.#.;.#.*.=.!.S.:.E.w.!.9.9.9.9.9.S.S.9.6.A.W.E.9.A.W.E.w.:.w.*._ X.X.X.+._ .._ #.+.+..._ _ ' *.",
"X.X.*.X.X.X...&.X.o.X.X...#.+.X...$.#.#...4.].(.E.E.!.w.9.9.8.9.S.9.9.F.A.A.w.F.E.E.E.w.w.:.:.X._ X._ ) _ ) ) / A A ^ ^ ) / _ _ ",
"_ _ _ _ X.+.X.X.+.X.X.+.#.+.+.X.$.D ..D _ -.-X_.-X`.`.].(.(.-X(.].E.F.(.E.F.E.e.8.F.9.>.w.:.5.*.%.%.) ( ) ^ ^ A N H ^ ^ / A D A ",
"9.9.F.4.( ( ( ( ( N ( ....D D D ..D D D D ..+.+.*.-.*.X.X.X.o.X.X.-.-.X...X.%.X.*.X.&.%.*.*.%.%.*.*.+.*.-.+.+.+.+._ +._ +.+.#.#.",
"-XE.(.9.( ( ( ( N A ( A D D D D D D D D D A N A )  .( A N N D D ( ( ( ( _ ..) (  .( X......._ *.=.-.;.=.=.#.=.#.$.+._ _ ......+.",
"`.(.-X9.( ) ( _ X.X...( D ) D D D ..D ....D ( ) ( D D ( ....D N n N (  ._ ( ( ) ^ ^ X._ ' ) _ =.-.+.+.=.;.@.+.+.#.@.+.#.+.+.+.+.",
"`.E.(.F.o.X.X...X.*.#.$.........D ..$.D ...._ ( ( D D S ..X...( ( )  .) ..( ( ) D ( _ ) ' ) ..@.#.=.@.' +.+.=.+.=.*.$.+._ _ _ _ ",
"*.*.*._ +.X._ _ ..X.+._ +.*.*.+.#.;.#.+.#.#.#.*.#.=.#.;.-.;.=.-.-.-.;.>.;.;.4.@.b.@.@.;.$.@.=.@.b.b.b.b.b.b.,.m.>.=.=.=.@.] +.' ",
") ) ) ) ) ) _ _ X.X._ _ ..+.+.+.+.#.#.#.=.#.+.;.>.;.>.>.>.6.:.;.-.,.@.>.;.;.b.$.@.@.=.=.=.@.@.b.b.b.[ =.=.=.b.M.b.b.b.=.#.) / ) ",
"%._ _ ' _ +.+.+.*.' ' _ ' _ ' +.+.-.>.=.=.*.*.=.>.;.;.*.;.*.=.=.;.=.=.;.@.@.=.@.@.=.@.] =.=.@.@.@.@.=.b.b.=.b.b.M.m.m.b.' / ^ / ",
"[ %.*.+.*.*.+.+.+.' +.*.+.*.+.*.+.-.=.*.=.*.*.>.>.=.=.>.=.>.=.+.+.#.@.=.b.;.=.=.@.=.=.[ @.@.=.=.=.b.b.b.b.b.b.m.m.m.m.b.@._ ) ) ",
") _ _ X.+...' ] _ ] ..] _ ` ` ( _ =.S.S.S.S.S.S.C.:.:.>.>.:.:.>.:.=.=.9.b.b.Z.D.V.m.,.m.m.F.V.b./.^.^.V.m.W.W.W.m.m.:.:.>.>.>.b.",
") ) _ _ _ _ ( ( ( ` ) S / A / A / ,.W._.^.W.S.m.F.D.C.>.:.:.S.m.m.:.:.=.n.C.^.^.Q.!./.W.m.S.D.F.D./.W.D.V.m.m.m.m.m.m.S.m.V.^.^.",
"_ +.+...) ( / ( ( ) _ ) _ ( ) ' _ =.W.m.S.S.S.S.:.:.m.:.:.>.,.,.*.*.*.%.-.,.C.W.Q.!.~.~.W.!.F.V.(.(.V.V.!.S.S.W./.W.F.m.6.;.:.9.",
"_ _ +.+.] ( ( ) ] $.$..._ _ +.] _ =.:.m.!.m.:.m.S.C.m.m.6.;.=.>.>.-.*.+.,.-.:.9.!.!.7.!.9.:.C.(.F.(.^.^./././.W.W.:.6.,.4.>.6.:."
};
