/* XPM */
static char *df9a1dd4146a4423a620f15e7d51c731TPL7LOKzFwrJXRlq[] = {
/* columns rows colors chars-per-pixel */
"64 64 153 2 ",
"   c #958F8A",
".  c #988F8A",
"X  c #96918D",
"o  c #9A928D",
"O  c #9D9692",
"+  c #9E9995",
"@  c #A09794",
"#  c #A19995",
"$  c #A49D9A",
"%  c #A6A19C",
"&  c #AAA29E",
"*  c #ACA5A1",
"=  c #AEA9A4",
"-  c #B0A6A4",
";  c #B2AAA6",
":  c #B4ADAA",
">  c #B8AFAA",
",  c #B6B1AD",
"<  c #BAB2AE",
"1  c #BCB5B2",
"2  c #BEB9B5",
"3  c #C0B7B2",
"4  c #C1BAB5",
"5  c #C0B7B8",
"6  c #C3BDB9",
"7  c #C8BFBA",
"8  c #C6C1BD",
"9  c #C9C1BE",
"0  c #CCC5C2",
"q  c #CEC9C5",
"w  c #D0C7C4",
"e  c #D1CAC6",
"r  c #D4CDC9",
"t  c #D8CECC",
"y  c #D6D1CD",
"u  c #D9D2CE",
"i  c #DCD5D2",
"p  c #DED9D5",
"a  c #E0D6D4",
"s  c #E2DBD6",
"d  c #E0D7D8",
"f  c #E5DEDA",
"g  c #E8DFDB",
"h  c #E6E1DD",
"j  c #EAE2DE",
"k  c #ECE5E2",
"l  c #EEE9E5",
"z  c #EFEBE8",
"x  c #F0E7E4",
"c  c #F2EBE5",
"v  c #F1E9E6",
"b  c #F1E9E7",
"n  c #F0EBE7",
"m  c #F2EAE7",
"M  c #F0E9E5",
"N  c #F4EBE6",
"B  c #F3ECE6",
"V  c #F5ECE7",
"C  c #F1EAE6",
"Z  c #F0EBE8",
"A  c #F2EAE8",
"S  c #F3EBE8",
"D  c #F3EBE9",
"F  c #F1ECE8",
"G  c #F0EDE8",
"H  c #F1ECE9",
"J  c #F2EDE9",
"K  c #F1EEE9",
"L  c #F1EDEA",
"P  c #F2EDEA",
"I  c #F3EEEA",
"U  c #F2EFEA",
"Y  c #F2EEEB",
"T  c #F3EEEB",
"R  c #F4ECE9",
"E  c #F6EDE8",
"W  c #F5EEE8",
"Q  c #F6EFE9",
"!  c #F4ECEA",
"~  c #F5EDEA",
"^  c #F5EDEB",
"/  c #F7EDEB",
"(  c #F4EFEB",
")  c #F6EEEB",
"_  c #F3EFEC",
"`  c #F4EFEC",
"'  c #F6EEEC",
"]  c #F7EFEC",
"[  c #F7EFED",
"{  c #F4EEEA",
"}  c #F8EFEA",
"|  c #F8EEEC",
" . c #F8EEEC",
".. c #F3F0EB",
"X. c #F7F0EA",
"o. c #F5F0EC",
"O. c #F4F1EC",
"+. c #F4F0ED",
"@. c #F5F0ED",
"#. c #F6F1ED",
"$. c #F5F2ED",
"%. c #F5F1EE",
"&. c #F6F1EE",
"*. c #F7F2EE",
"=. c #F6F3EE",
"-. c #F6F2EF",
";. c #F7F2EF",
":. c #F7F4EF",
">. c #F6F1ED",
",. c #F9F0EB",
"<. c #F8F1EB",
"1. c #F8F0ED",
"2. c #F9F2EC",
"3. c #FBF2ED",
"4. c #F8F0EE",
"5. c #F9F1EE",
"6. c #F8F3EF",
"7. c #FAF2EF",
"8. c #F9F2EE",
"9. c #F8EFF0",
"0. c #F7F3F0",
"q. c #F7F3F0",
"w. c #F8F3F0",
"e. c #FAF2F0",
"r. c #FBF3F0",
"t. c #FBF3F1",
"y. c #F9F4F0",
"u. c #F8F5F0",
"i. c #F8F4F1",
"p. c #F9F4F1",
"a. c #FAF5F1",
"s. c #F9F5F2",
"d. c #F8F4F3",
"f. c #FAF5F2",
"g. c #FBF6F2",
"h. c #FAF6F3",
"j. c #FBF6F3",
"k. c #FCF4F1",
"l. c #FDF5F2",
"z. c #FCF7F3",
"x. c #FEF6F3",
"c. c #F9F5F4",
"v. c #FBF7F4",
"b. c #F9F4F1",
"n. c #FDF8F4",
"m. c #FCF8F5",
"M. c #FFF8F5",
"N. c #FEF9F5",
"B. c #FFF9F6",
"V. c #FFFAF6",
"C. c #FFFBF7",
"Z. c #FEF9F5",
"A. c #FFFCF9",
/* pixels */
"6 2 1 2 2 2 2 2 6 2 2 2 5 2 1 : 1 3 8 = 3 3 4 0 7 7 0 7 9 7 6 6 2 4 4 4 3 3 3 3 4 4 3 3 4 3 4 4 7 2 < 1 - 1 5 < > 5 6 5 4 2 1 2 ",
"l l k l l l l k k l l z z k p y > > = 3 t g j n D D D D D n z l k j j h h f s h f f s f h h f g p h h h e < < > e p g g k k k k ",
"` ` q.0.h.%.%.%.q.0._ _ _ ` c.A.s 3 % 9 j N E 3. . .5.5.%.%.%.%.k.d.5.5.5.<.} } ( D ( ( V } ( } %.z.:.C.^ 6 > - d l  .d.h.k.:.h.",
"_ _ 0.0.5.%.5.%.+.0.%.%._ _ 0.0.3.8 o s V N N <.k.3.d.h.5.h.h.h. . . .5.5.3.6.3.3. .} %.} } <.( 6.:.l 6.B.e ; $ g D  . .6.6.%.%.",
"0.d.v.h.h.h.h.h.h.h.v.m.c.0.L l g.e o h l %.z.6.5.h.6.6.v.6.0.h.h.h.h.h.h.6.h.h.h.h.d.h.5.5.%.%.%.o.o.c z.u * $ g A 5.5.6.6.h.z.",
"_ %.%.%.%.0.h.%.h.0.%.%.0.h.h.%.C.r % j l c :.6.6.h.6.v.h.v.h.0.h.h.5.5.6.h.h.6.%.h.5.5.0.d.h.h.6.6.v.L k.s = $ f x 5.3.z.v.6.6.",
"` d.h.h.h.h.h.h.h.:.h.h.h.h.%.L z.q O h L c ..6.6.6.:.:.:.0.0.0.%.%.%.h.%.h.h.h.0.0.h.0.h.h.c.h.6.z.o.c k.j - $ g A 5.3.z.6.6.6.",
"_ 0.d.%.%.h.d.( h.%.%.%.h.h.h.%.:.r + s c h.o...h.:.:.:.:.0.h.h.h.h.h.:.h.h.5.h.h.0.0.0.h.%.0.0.6.C.l o.k.f ; $ g n ( o.<.6.6.z.",
"%.0.h.%.%.h.h.h.0.h.%.h.h.h.%...2.9 % h G =.L o.o.:.6.6.h.h.h.%.h.0.c.d.c.c.c.c.0.d.d.d.c.c.d.0.h.5.5.( t.g - $ j l D  .5.5.%.5.",
"_ %.h.h.0.0.0.h.h.%.h.0.h.0.%.%.2.9 o s W =.W o...=.:.6.d.%.h.h.0.c.d.d.0.h.c.c.c.d.d.d.0.h.d.0.6.h.5.( 9.g * & j A }  .%.%.o.%.",
"L %.h.0.h.%.h.%.0.h.0.h.h.:.%.%.W 8 o a W ....o...o.o.%.%.%.h.h.0.0.0.h.0.0.h.0.0.h.0.0.0.0.h.0.h.5.d.( d.g * * k D ` ` o.o.L o.",
"L %.0.%.h.h.h.0.h.%.h.%.h.h.%.o.} 8 o u W ......o...( ( %.%.%.d.h.h.0.0.h.0.0.0.0.0.c.0.h.0.0.0.h.6.` ` k.g & - k x } ^ o.o.( %.",
"L %.5.d.5.h.h.5.5.h.6.h.h.5.%.%./ 7 . u ( 5.`  .( ( ( ( ( ` 5.5.0.0.d.d.d.5.0.h.h.0.h.0.0.h.0.h.6.6.%.o.5.k $ ; x ( } D o.( ( 5.",
"L ` %.%.h.h.h.%.h.6.d.5.6.h.%.( V 6 o r (  .5. .} ( ( ( ( %.%.%.0.0.0.0.%.h.0.h.h.0.0.5.0.0.0.0.6.6.o.o.9.k # > x (  .( ( ( ( o.",
"L ( o.5.5.h.h.5.6.h.%.h.h.5.%.( / 4 . r / / 5. .} ` ( } 5.` o.:.` ` ` 0.%.5.h.6.h.5.h.d.h.h.:.h.%.o.o.(  .k O > k / } ( o.o.L o.",
"A L o.%.%.h.h.h.h.5.h.5.h.d.%.} } 4 . e / /  .D ^ } D } o.<.:.2._ _ ` ` %.%.%.5.d.d.5.h.h.5.h.5.%.o.o.c  .k O > j D } ( o.o.( o.",
"L %.:.G ..:.:.u.c.c._ d.A `  .D D 6 . t c X.W X.} W W W X.X.X.2.5.L L ( / / / E  .}  .k.h.0.` _ ( <.N (  .g # = k x x D D  . .n ",
"l :.....:.:.:.l z _ H 9.^  .d. .} < o s j c X.X.X.} } } X.X.X.X.L %.5.%.} } } E N N ( D L 0.0.0.V ( D } 5.d # # A k x v.D 3.v.D ",
"l G k ..%.c 6.6._ _ z d.A D ^ b x < o t c c X.c } E E ( 2.2.2.2.h.5.( A  . .V N } 3.3. .5.h.q.z } } D D D i % X 7 f b 9.A x x  .",
"..:.:...l L 6.6.+._ z d.^ ^ b k 6 : o ; h c c j h h s a i u u u y y i i i u a j j j j n L o.q.q.k.d.} x k 0 = X 1 f k x %. .n  .",
"6 6 y 8 8 u 0 2 0 0 2 q 0 0 2 : ; < $ O & & & & $ $ $ # # # # # $ $ + $ $ & $ $ - & & > 1 2 0 q t y r 0 0 , = + , , : 8 e i r 6 ",
", $ 2 , , 4 % % $ + + 1 2 5 1 ; 1 < : ; = & ; ; < < 1 1 6 8 9 9 8 6 2 , ; 3 4 > > ; ; - * % % % # $ * * = : 2 , 2 = X + $ * , 2 ",
"8 : y p h z f k f d p k k h s u p i i h h h l h j j k k k n c l +.+.0.k 7 ; < > < 7 e r y u y r q 0 0 8 8 8 8 2 u p y p p y 0 y ",
"6 q l l k v.=.K q._ z q.l l L L k ` c c o.o.l o.L ( L ( ` %.o.o.0.l 0.A.s 6 < > e g N N L %.0.l _ l z z z U z z :.z l %...v.+.y ",
"8 i l G ( l o.c %.A z ` _ z A _ l L L ( L L o.o.o.o.o.( L o.o.( L +.L ( 3.q & > j j N E o.( ( %.%.%.%.( %.%.%.%.+.L z z ` d.L j ",
"2 y l G %.L o.( L ( L ` +.+.%.%.z L o.o...c o...o.L ( ( ....( ( %.L %.L k.u $ 3 x x E 3.6.5.5.h.h.5.d.h.h.5.h.h.%.h.k.%.%.` A k ",
", r l G %.( o.%.L _ %.L z %.+.+.l ..%.6.:.:.:.:.=.=.o.:.:.:.:.%.h.L k.L 3.a @ 7 x x ( 5.6.3.h.h.6.h.h.h.h.h.h.0.L %.%.0.%.%.L k ",
"1 q G h l l c L A A n l l z l z ....:.6.v.:.h.h.u.v.u.6.:.v.:.h.h.L h.c 3.u o 9 x x ( 5.6.6.h.6.5.5.5.h.%.5.h.0.l l l l %.%.z h ",
"1 8 x g k k l c l k k l l k k l :.h.0.h.h.0.0.0.6.v.h.0.0.h.0.h.d.h.( c 3.e o w x N } 5.6.6.5.h.h.0.0.h.0.0.0.0.z l k l L %.l f ",
"1 2 A x l l L c z l l L _ l z +.0.h.h.h.0.0.h.0.:.:.0.0.%.:.0.0.%.k.L ( k.q @ t x N } 5.6.h.h.h.0.h.h.h.c.v.v.0.U q.z z _ %.z k ",
"2 > ( 5.%. .6.( %.` %.h.0.0.c.c.0.:.:.0.h.h.h.h.:.0.0.0.h.h.0.0.h.5.o.( 3.7 # u N N ` } 5.6.h.%.0.%.%.h.0.0.0.0.q.q.0.0.0.0.z z ",
"2 = D  .%. .h.( _ %.0.0.0.c.h.0.h.h.0.0.0.0.%.%.0.h.h.0.0.0.0.h.h.%.3.n } 4 @ u N (  .<.%.6.h.%.h.h.%.h.c.0.0.0.c.c.0.0.c.0.z l ",
", * L o.c h.o.c L ( o.6.6.h.k.6.h.0.0.%.0.0.0.0.h.0.0.0.0.0.h.0.5.5.o.o.x 4 O i D / / `  .5.5.%.h.6.h.%.%.h.6.h.h.%.5.5.%.%.( l ",
"1 : c %...5.L o.o.( o.o.6.6.6.6.%.%.h.h.h.0.h.h.0.0.h.h.h.h.0.%.6.:.o.o.k 4 @ a / / }  .` %.o.o.%.h.%.h.h.6.h.5.5.h.h.h.%.%.L l ",
", , c %...( L o.o.( L ( o.o.o.%.%.0.0.0.0.0.0.0.0.h.0.0.0.0.h.0.6.%.L o.k 1 @ a  . . .^ ( ( ( ( %.%.0.h.h.h.h.6.h.5.h.h.%.%.L k ",
": 2 c ( o.L o.o.o.V ..c ( o.o.o.%.%.0.0.h.h.h.5.0.0.h.0.0.h.0.5.6.o.( o.g > O a  ./ ` } ( ( %.( +.%.%.h.6.h.h.6.6.h.h.%.` %.L k ",
": 2 =.U ( c %.( ..L ( ( ( o.o.( L %.%.5.d.5.d.h.h.h.h.5.d.d.5.h.` ( ( d.j < @ a / / } ( o.o.o.o.%.o.:.:.:.6.k.h.6.5.d.5. . .} l ",
": , z +.( o.o.o.( ( ( ( o.o.o.( %.L %.%.d.9.5.5.%.%.5.%.5.d.5.d.5.( ` %.g 1 @ t / } /  .o...o.o.:.%.o.o.o.%.6.6.6.5.%.%.` 5.D k ",
"1 * h K L %.L 6.%.o.( ( o.o.....` D (  .` `  . . . .%. . . . . .5.L ^ A d < @ w D D N ( o.( o.L o.o.o.o.o.o.o.o.o.o. . .`  .N g ",
"1 O i l ..5.c 6.6.<.o.L L L o.+. . .( ( ^ D ^ D ` ( ( ( ` ` ` ` %.L b k t : o 7 x x D ( ( o.....o.....L c ..L ( L L  .` } ` x f ",
"6 O = p O.l z O.:.:.h.v...h.:.0.5.k.k.d.k.k.k.v.3. .5.3.5.5. . .c %.n y 5 ; - $ g x / / +.+.%.+.U l $.$.$.2.2.X.( k.k.( } d.g 0 ",
"0 * + % 2 p k p h f p p p p u r r t w 0 e r r r i d d s f j j j h y 2 > < 1 - o - < 7 w q q 0 8 q r r r y y s s f f d d u 9 > * ",
"6 , = % X X + + + % # # $ + % % @ * - ; > < > ; * & % % $ $ # # + % * : < < > ; @ $ @ @ O + + +   + O O + o # $ # o o O O @ $ > ",
"6 2 1 2 6 1 1 6 8 q y q q , , 1 6 t k x ^  .D x k j f s d t t r 0 q q q w w w e t i t t y y y r q 8 , = 1 < ; = > < 1 > ; > 5 6 ",
"l l h h z ..G z o.h.6.o.h.i 1 * e h L L A ` ` 5.6.6.6.%.o.%.5.o.0.+.l l l n /  .x b D  .%.5.o.c $.l h 8 < < 8 u h j c x N N v j ",
"l 6.v.6.=.=.q.q.6.6.o.( A.p : % j ( o.( %.d.( ( L c c ..o.o.o.o.l +.6.6.( x A } 9.9. .` ( ` 5.5.U =.C.h > & 9 3.3.<.W V }  .3.3.",
"6.o.:.6.h.:.q.q.6.%.:.l =.p = = l ..( ( 5.5.( n 6.z.6.6.5.o.o.( %.L c ( } 5.3. .9. . . .` ( ( ( $.W $.Q 8 > h W 2.2.<.3.k.3. .3.",
"o.:.v.u.:.h.h.q.%.:.:.+.0.h & : n %.o.( o.( ( h.6.6.6.6.v.z.h.h.h.:.%.%.(  .( D  .9. . .%.( ( ( ..W Q z.8 & x } 2.g.z.3.3.3.k.k.",
"..:.0.:.c.=.=.q.c.=.h...o.h & & L =.......=.:.:.0.:.0.h.%.h.h.%.0.0.0.h.0.5.h.h.%.%.%.%.%.%.%.:.u.2...z.y = c X.=.=.u.u.u.3.g.z.",
"..:.h.0.c.u.c.c.q.q.:.L o.h & ; c o...........:.0.h.0.0.h.%.%.h.h.h.0.0.0.h.%.0.h.%.h.0.h.0.h.%.2.=...z.9 = h X.=.2.u.u.u.u.u.u.",
"..=.q.=.u.u.c.u.h.0.:...Q s & ; l ....L :.......0.0.h.h.h.h.h.%.0.0.h.0.h.0.0.h.5.0.h.h.h.h.h.h.u.2.O.z.9 > h $.2.X.=.u.5.h.h.h.",
"..=.q.q.u.q.q.u.h.q.=.K W p & & l ............:.%.:.0.0.h.h.%.h.0.h.0.0.h.0.0.h.0.h.0.0.h.%.0.h.6.=.=.u.9 = h W 2.X.=.=.h.5.d.d.",
"..q.q.q.q.q.q.q.z.2.Q B W u % & l L ( V o.o.( ( %.0.5.h.h.h.%.h.0.0.h.0.h.0.0.0.0.%.0.0.%.0.0.0.2.=.o...8 = h Q W o.%.5.5.h.d.0.",
"..q.q.q.q.q.q.c.u.2.G W B y % & l ( ( ( o.o.c o.%.%.5.d.h.6.h.5.h.0.h.0.0.0.h.0.0.h.0.h.0.h.h.0.=.o.o.k 4 = h O.o.( o.` 6.h.d.d.",
"..q.q.q.q.c.q.q.=.u.W W Q 9 $ = n ( ( ( o.o.L o.%.%.%.5.%.5.h.h.h.0.h.0.h.5.%.h.h.h.h.h.h.5.h.5.o.o.o.h < = j ..W W ( (  .k.9.d.",
"..q.q.q.c.q.c.c.=.C.W W c 9 % > l ( ( L ( ( ( o.( ( ` %.5.h.0.h.5.h.5.h.h.5.h.h.5.5.h.%.%.h.%.h.W o.o.h , & j $...W A ( %.d.d.d.",
"o.6.h.h.5.h.k.` z.o.D ( N w $ > k D ( ( ( %.%.o.` ` H H %.%._ t.h.h.d.h.5.h.h.5.d.5.5.h.k.m.%.%.X.Q X.i ; > g 2.W o.5.<.`  .k.t.",
"..%.d.%.%.d.d.d.6.:.} n j e # < ( ( 5.o.( ( o.%.H %.` ` v.t.%.%.( %.h.h.h.%.%.h.d.d.k.0.d.m.5.h.W 2.X.9 & ; x 2.W } 6.3.d. .9.9.",
"..:.c.h.h.h.c.d.(  .5.} x u o > x n ( ` %.L c o.` ` H z %.%.H H L %.` 5.v.k.d.k.0.0.B.c.%.h.( A c B c 9 = = c W W 2.3.3.9.9.9.9.",
"l ..%.` ( ( %._ k.5.( n x u % ; k ( ( ( 5.o.c L %.` 0.A H b ^ H %.h.( ( %.5.%.6.c.` c.c.%.5.( L V x c 9 ; ; B c W O.o.V ` ^ ^ ^ ",
"..=.:.:.q.+.q.0.5.V 3.,.N 9 ; @ g  .d.D D D D 9.D b ^ D 9.D D b 0.d.0._ L n L %.q.z z z A _ _ 0.6.x j 7 & = c 2.<.}  .D ^  .9.9.",
"=...%...z q._ _ 5.} 3.E g 3 3 @ 0 k D D } `  .B.t.^ 9.D c.c.A.9.0.z _ q.h.h.d.( q._ +.+.d.0.z d.<.f s e > & u 2.( ( }  .9.k.9.9.",
"p i i y u y u y u e 9 3 3 ; ; & @ - ; 5 0 6 5 7 r 0 e 5 9 w t q 0 0 q y r i i r q p p y i t 0 q r 1 9 7 1 # ; 9 a s d g f f d d ",
"8 2 1 1 1 1 , < < < 3 3 3 9 9 9 7 6 > 1 w 7 > 5 6 0 t 2 1 2 e 2 , , 0 0 : , 8 q : 0 8 = : , ; 1 0 0 t 0 9 8 3 < 3 3 5 5 6 6 6 5 "
};
